<svg width="27" height="45" viewBox="0 0 27 45" fill="none" xmlns="http://www.w3.org/2000/svg">
<path d="M24.7934 -1.30078e-07L27 2.23088L14.9739 14.3819C14.7812 14.5778 14.552 14.7332 14.2996 14.8393C14.0472 14.9454 13.7765 15 13.5031 15C13.2297 15 12.9591 14.9454 12.7066 14.8393C12.4542 14.7332 12.2251 14.5778 12.0324 14.3819L-5.58156e-07 2.23088L2.20663 0.00210276L13.5 11.4067L24.7934 -1.30078e-07Z" fill="#EC2C2C"/>
<path d="M24.7934 15L27 17.2309L14.9739 29.3819C14.7812 29.5778 14.552 29.7332 14.2996 29.8393C14.0472 29.9454 13.7765 30 13.5031 30C13.2297 30 12.9591 29.9454 12.7066 29.8393C12.4542 29.7332 12.2251 29.5778 12.0324 29.3819L-5.58156e-07 17.2309L2.20663 15.0021L13.5 26.4067L24.7934 15Z" fill="#EC2C2C"/>
<path d="M24.7934 30L27 32.2309L14.9739 44.3819C14.7812 44.5778 14.552 44.7332 14.2996 44.8393C14.0472 44.9454 13.7765 45 13.5031 45C13.2297 45 12.9591 44.9454 12.7066 44.8393C12.4542 44.7332 12.2251 44.5778 12.0324 44.3819L-5.58156e-07 32.2309L2.20663 30.0021L13.5 41.4067L24.7934 30Z" fill="#EC2C2C"/>
</svg>
