<svg width="336" height="106" viewBox="0 0 336 106" fill="none" xmlns="http://www.w3.org/2000/svg">
<rect opacity="0.16" width="336" height="106" fill="white"/>
<rect opacity="0.24" x="95" y="38" width="148" height="12" fill="white"/>
<rect opacity="0.24" x="49" y="75" width="230" height="12" fill="white"/>
<path d="M105.528 23.608C105.456 24.088 105.384 24.688 105.36 25.312C105.312 26.536 105.288 29.944 105.288 31.96C105.288 34.6 105.672 38.944 105.672 40.84C105.672 42.904 104.112 44.488 100.968 44.488C97.128 44.488 95.112 43.024 95.112 40.48C95.112 38.056 97.344 36.352 101.016 36.352C106.296 36.352 110.232 38.944 112.224 40.624L110.496 43.312C108.216 41.152 104.736 38.824 100.632 38.824C98.952 38.824 98.016 39.472 98.016 40.312C98.016 41.224 98.856 41.776 100.512 41.776C101.784 41.776 102.648 41.416 102.648 40.024C102.648 38.584 102.384 34.288 102.384 31.96C102.384 29.656 102.408 26.608 102.408 25.24C102.408 24.808 102.36 24.064 102.264 23.608H105.528ZM95.568 25.84C97.272 26.128 100.032 26.368 101.496 26.368C104.76 26.368 107.904 26.2 111.408 25.648L111.384 28.384C108.936 28.72 105.12 29.008 101.52 29.008C99.984 29.008 97.2 28.792 95.616 28.6L95.568 25.84ZM95.424 31.024C97.008 31.312 99.936 31.48 101.208 31.48C105.648 31.48 108.744 31.192 111.696 30.808L111.672 33.64C108.36 34.024 105.744 34.168 101.184 34.168C99.768 34.168 97.056 34.048 95.472 33.856L95.424 31.024ZM132.072 24.016C132.024 24.4 131.928 25.696 131.904 26.08C131.856 27.64 131.904 32.536 131.928 34.48L128.952 33.448C128.952 31.96 128.928 27.376 128.856 26.08C128.76 25.12 128.688 24.304 128.616 24.016H132.072ZM118.512 26.992C122.112 26.992 128.424 26.8 131.424 26.8C133.896 26.8 137.52 26.776 138.864 26.8L138.816 29.656C137.304 29.584 134.88 29.512 131.352 29.512C126.984 29.512 122.208 29.704 118.608 29.896L118.512 26.992ZM131.52 34.096C131.52 38.008 130.08 39.952 127.32 39.952C125.448 39.952 123.168 38.488 123.168 35.56C123.168 32.848 125.352 31.072 127.968 31.072C131.136 31.072 132.792 33.4 132.792 36.4C132.792 39.544 130.944 43.504 125.088 45.136L122.544 42.592C126.624 41.728 129.816 40.096 129.816 35.896C129.816 34.36 128.976 33.592 127.896 33.592C126.984 33.592 126.048 34.24 126.048 35.512C126.048 36.592 126.96 37.312 127.896 37.312C129.048 37.312 130.032 36.328 129.288 33.496L131.52 34.096ZM135.192 23.296C135.768 24.16 136.44 25.264 136.872 26.128L134.832 26.968C134.352 26.008 133.824 25 133.2 24.112L135.192 23.296ZM138.408 22.6C138.984 23.488 139.656 24.544 140.088 25.408L138.096 26.272C137.592 25.288 137.04 24.28 136.392 23.44L138.408 22.6ZM152.4 28.264C153.792 28.408 155.16 28.48 156.624 28.48C159.552 28.48 162.552 28.24 165.048 27.712V30.688C162.528 31.072 159.504 31.264 156.624 31.288C155.208 31.288 153.84 31.24 152.424 31.144L152.4 28.264ZM161.544 24.232C161.472 24.688 161.424 25.264 161.4 25.768C161.352 26.56 161.304 28.216 161.304 29.944C161.304 34.36 161.688 37.48 161.688 39.76C161.688 42.28 160.44 44.104 156.984 44.104C153.648 44.104 151.584 42.736 151.584 40.216C151.584 37.768 153.648 36.088 156.936 36.088C161.448 36.088 164.352 38.344 166.224 40.072L164.592 42.592C161.832 40.024 159.408 38.416 156.696 38.416C155.328 38.416 154.392 38.968 154.392 39.88C154.392 40.864 155.352 41.296 156.648 41.296C158.112 41.296 158.616 40.528 158.616 39.112C158.616 37.456 158.304 33.424 158.304 29.968C158.304 28.144 158.28 26.536 158.256 25.816C158.256 25.432 158.184 24.688 158.112 24.232H161.544ZM149.832 24.472C149.64 24.952 149.352 26.2 149.256 26.632C148.896 28.24 148.104 33.52 148.104 35.92C148.104 36.376 148.128 37 148.2 37.48C148.536 36.64 148.944 35.824 149.28 35.008L150.768 36.184C150.096 38.176 149.304 40.6 149.04 41.92C148.968 42.256 148.896 42.784 148.92 43.024C148.92 43.288 148.92 43.696 148.944 44.032L146.232 44.224C145.752 42.568 145.272 39.808 145.272 36.568C145.272 32.944 145.992 28.408 146.28 26.56C146.376 25.888 146.472 24.952 146.496 24.208L149.832 24.472ZM174.912 24.928H191.28V27.328H174.912V24.928ZM175.176 28.456H189.096V30.784H175.176V28.456ZM172.32 31.984H186.192V34.408H172.32V31.984ZM174.624 22.504L177.648 23.176C176.496 27.016 174.456 30.472 172.128 32.608C171.552 32.104 170.232 31.192 169.488 30.784C171.888 28.96 173.712 25.864 174.624 22.504ZM180.576 34.528L183.384 35.44C180.936 39.952 176.856 43.432 172.464 45.544C172.032 44.944 170.976 43.816 170.328 43.312C174.744 41.56 178.536 38.44 180.576 34.528ZM185.232 31.984H188.208C188.136 37.768 188.448 42.328 189.84 42.328C190.224 42.328 190.32 41.032 190.344 39.088C190.92 39.76 191.64 40.48 192.24 40.912C192.024 43.912 191.496 45.184 189.648 45.208C185.688 45.184 185.28 39.328 185.232 31.984ZM172.368 37.192L174.432 35.296C177.888 37.096 182.424 40.024 184.632 42.232L182.328 44.44C180.336 42.232 175.92 39.16 172.368 37.192ZM206.856 36.664H217.08V39.088H206.856V36.664ZM205.584 42.112H218.184V44.632H205.584V42.112ZM206.592 23.704H215.472V26.2H206.592V23.704ZM210.528 34H213.384V43.696H210.528V34ZM214.704 23.704H215.232L215.736 23.608L217.536 24.304C215.928 30.28 212.016 33.568 206.832 35.248C206.52 34.552 205.848 33.496 205.32 32.92C209.88 31.72 213.504 28.696 214.704 24.16V23.704ZM209.832 26.056C211.272 29.368 214.248 31.816 218.496 32.8C217.92 33.352 217.128 34.408 216.768 35.152C212.208 33.808 209.208 30.904 207.456 26.68L209.832 26.056ZM195.864 24.88H205.968V27.376H195.864V24.88ZM195.576 38.848H206.136V41.368H195.576V38.848ZM199.584 22.6H202.152V29.68H199.584V22.6ZM199.896 29.68H201.84V36.352H202.152V45.16H199.584V36.352H199.896V29.68ZM198.168 33.976V35.44H203.64V33.976H198.168ZM198.168 30.688V32.104H203.64V30.688H198.168ZM196.128 28.696H205.776V37.408H196.128V28.696ZM231.528 26.224C234.48 26.632 239.28 26.512 241.848 26.2V29.296C238.92 29.584 234.552 29.584 231.552 29.296L231.528 26.224ZM233.448 36.472C233.256 37.288 233.16 37.864 233.16 38.488C233.16 39.568 234.096 40.216 236.544 40.216C238.68 40.216 240.456 40.024 242.544 39.568L242.616 42.808C241.056 43.12 239.112 43.288 236.4 43.288C232.272 43.288 230.28 41.8 230.28 39.352C230.28 38.392 230.424 37.456 230.712 36.232L233.448 36.472ZM227.832 24.616C227.664 25.12 227.352 26.344 227.256 26.776C226.92 28.36 226.08 33.16 226.08 35.56C226.08 36.04 226.104 36.64 226.176 37.12C226.536 36.304 226.92 35.488 227.28 34.672L228.768 35.848C228.072 37.864 227.28 40.456 227.04 41.728C226.968 42.088 226.896 42.616 226.896 42.856C226.92 43.12 226.92 43.528 226.944 43.864L224.184 44.032C223.704 42.4 223.248 39.472 223.248 36.208C223.248 32.584 223.968 28.552 224.232 26.68C224.328 26.032 224.448 25.12 224.472 24.352L227.832 24.616ZM49.3145 80V62.24H52.8665V77.024H60.0905V80H49.3145ZM65.1095 80V62.24H68.6615V80H65.1095ZM74.9513 80V62.24H78.5513L83.7113 71.72L85.5113 75.56H85.6313C85.4393 73.712 85.1513 71.336 85.1513 69.32V62.24H88.5353V80H84.9113L79.7753 70.496L77.9753 66.704H77.8553C78.0233 68.6 78.3113 70.832 78.3113 72.896V80H74.9513ZM94.8479 80V62.24H105.744V65.192H98.3999V69.296H104.616V72.296H98.3999V77.024H106.008V80H94.8479ZM123.534 63.56C123.198 66.008 122.718 68.816 121.878 71.648C120.438 76.496 118.374 79.472 115.758 79.472C113.07 79.472 110.862 76.52 110.862 72.464C110.862 66.944 115.686 62.192 121.902 62.192C127.83 62.192 131.598 66.32 131.598 71.576C131.598 76.616 128.502 80.192 122.454 81.128L120.63 78.296C121.566 78.176 122.238 78.056 122.886 77.912C125.934 77.168 128.334 74.984 128.334 71.456C128.334 67.688 125.982 65 121.83 65C116.742 65 113.958 69.152 113.958 72.176C113.958 74.6 114.918 75.776 115.83 75.776C116.862 75.776 117.774 74.24 118.782 71C119.478 68.744 120.006 65.984 120.246 63.464L123.534 63.56ZM145.734 60.512C145.638 60.968 145.542 62 145.518 62.6C145.398 64.496 145.326 67.088 145.326 69.32C145.326 71.936 145.47 76.088 145.47 77.48C145.47 80.432 144.414 81.248 142.83 81.248C140.502 81.248 137.19 79.232 137.19 76.688C137.19 74.36 140.19 71.912 143.526 70.736C145.662 69.968 148.086 69.584 149.91 69.584C153.606 69.584 156.534 71.504 156.534 74.816C156.534 77.672 155.046 79.808 151.23 80.744C150.126 80.984 149.046 81.056 148.062 81.152L146.982 78.032C148.038 78.032 149.094 78.032 149.91 77.864C151.854 77.528 153.414 76.544 153.414 74.816C153.414 73.16 151.974 72.224 149.886 72.224C147.846 72.224 145.734 72.656 143.862 73.4C141.702 74.216 140.166 75.512 140.166 76.544C140.166 77.312 141.294 77.96 141.918 77.96C142.35 77.96 142.662 77.768 142.662 76.928C142.662 75.68 142.542 72.344 142.542 69.44C142.542 66.704 142.566 63.728 142.566 62.624C142.566 62.144 142.494 60.944 142.422 60.512H145.734ZM152.574 63.128C154.398 64.016 157.182 65.576 158.478 66.488L157.014 68.936C155.862 67.976 152.742 66.176 151.254 65.456L152.574 63.128ZM137.838 64.448C139.254 64.616 140.286 64.616 141.15 64.616C143.646 64.616 147.39 64.16 149.862 63.44L149.934 66.416C147.222 67.04 143.358 67.472 141.246 67.472C139.662 67.472 138.726 67.448 137.91 67.352L137.838 64.448ZM171.222 69.92C173.238 74.96 177.534 78.248 184.302 79.448C183.654 80.048 182.838 81.296 182.43 82.088C175.374 80.528 171.198 76.76 168.702 70.664L171.222 69.92ZM178.566 68.48H179.118L179.646 68.36L181.614 69.2C179.694 76.376 174.942 80.168 168.702 82.136C168.342 81.392 167.646 80.288 167.07 79.688C172.638 78.248 177.078 74.648 178.566 68.984V68.48ZM162.702 63.2H183.654V65.984H162.702V63.2ZM169.494 68.48H178.854V71.264H168.678L169.494 68.48ZM168.702 59.624H171.702C171.51 63.392 171.15 75.008 164.238 81.296C163.638 80.528 162.726 79.808 161.742 79.232C168.606 73.64 168.558 62.552 168.702 59.624ZM193.47 68.984V77.816H190.71V71.648H188.022V68.984H193.47ZM193.47 76.688C194.382 78.272 196.086 78.968 198.558 79.064C201.438 79.208 207.126 79.136 210.462 78.872C210.15 79.52 209.694 80.84 209.574 81.68C206.574 81.824 201.462 81.872 198.534 81.728C195.654 81.608 193.71 80.912 192.27 79.064C191.31 80 190.302 80.912 189.102 81.944L187.734 79.088C188.742 78.44 189.918 77.576 190.974 76.688H193.47ZM188.094 61.856L190.302 60.248C191.67 61.304 193.35 62.912 194.094 64.04L191.718 65.864C191.07 64.688 189.462 63.032 188.094 61.856ZM197.118 66.392L199.59 65.864C200.022 66.56 200.43 67.496 200.574 68.12L197.934 68.72C197.862 68.096 197.502 67.112 197.118 66.392ZM195.918 61.04H208.518V63.032H195.918V61.04ZM195.654 71.384H208.83V73.376H195.654V71.384ZM194.67 68.288H209.718V70.328H194.67V68.288ZM194.31 64.232H210.006V66.32H194.31V64.232ZM194.646 74.528H209.766V76.616H194.646V74.528ZM200.67 59.624H203.526V65.552H200.67V59.624ZM200.67 69.296H203.526V78.2H200.67V69.296ZM204.414 65.816L207.246 66.464C206.718 67.352 206.238 68.168 205.878 68.744L203.55 68.144C203.862 67.448 204.246 66.464 204.414 65.816ZM220.614 66.032H229.494V68.432H220.614V66.032ZM214.71 79.328H235.446V81.68H214.71V79.328ZM216.102 60.512H222.822V62.84H216.102V60.512ZM221.91 60.512H222.39L222.894 60.392L224.766 61.328C222.99 66.032 219.198 69.464 215.166 71.408C214.782 70.808 214.014 69.824 213.438 69.32C217.014 67.808 220.59 64.544 221.91 60.992V60.512ZM227.382 59.696C229.038 63.608 232.398 67.088 236.574 68.672C235.902 69.248 235.062 70.328 234.63 71.072C230.214 69.056 226.926 65.216 224.934 60.464L227.382 59.696ZM214.95 64.832L216.486 63.248C217.566 63.848 218.886 64.784 219.51 65.504L217.902 67.256C217.278 66.536 215.982 65.504 214.95 64.832ZM231.078 59.84L233.238 61.376C231.918 62.504 230.358 63.68 229.158 64.448L227.43 63.104C228.582 62.288 230.166 60.896 231.078 59.84ZM233.79 62.648L235.902 64.136C234.534 65.336 232.878 66.584 231.606 67.376L229.878 66.032C231.126 65.168 232.806 63.752 233.79 62.648ZM220.83 72.104V74.216H229.038V72.104H220.83ZM218.022 69.8H232.014V76.496H218.022V69.8ZM219.414 76.808L222.054 76.136C222.678 77 223.206 78.224 223.422 79.04L220.662 79.832C220.494 79.016 219.966 77.744 219.414 76.808ZM227.982 76.112L230.766 76.712C230.166 77.888 229.614 78.968 229.134 79.736L226.614 79.16C227.094 78.32 227.694 77.024 227.982 76.112ZM259.974 70.424L262.23 71.792C261.222 72.896 260.166 74.048 259.302 74.816L257.502 73.616C258.294 72.776 259.374 71.408 259.974 70.424ZM249.294 71.984L251.166 70.76C252.15 71.648 253.206 72.896 253.662 73.808L251.646 75.152C251.262 74.24 250.23 72.92 249.294 71.984ZM250.326 60.44H260.238V68.864H257.574V62.792H250.326V60.44ZM250.854 64.064H259.086V66.272H250.854V64.064ZM249.174 67.496H262.038V69.944H249.174V67.496ZM254.118 68.744H256.782V79.448C256.782 80.624 256.638 81.32 255.87 81.728C255.15 82.136 254.19 82.16 252.87 82.16C252.798 81.44 252.486 80.408 252.174 79.688C252.846 79.712 253.566 79.712 253.806 79.712C254.046 79.712 254.118 79.64 254.118 79.376V68.744ZM248.478 78.224C249.702 77.528 251.502 76.4 253.278 75.248L254.142 77.408C252.726 78.488 251.166 79.616 249.798 80.528L248.478 78.224ZM256.71 70.448C257.478 73.304 259.302 76.88 262.59 78.56C262.014 79.064 261.15 80.192 260.742 80.912C257.598 78.896 255.87 74.768 255.126 71.984L256.71 70.448ZM241.35 65.6H248.454V68H241.35V65.6ZM240.198 69.752H248.958V72.2H240.198V69.752ZM240.438 73.544L242.262 73.088C242.67 74.432 243.006 76.112 243.126 77.264L241.182 77.768C241.134 76.616 240.798 74.888 240.438 73.544ZM239.934 79.04C242.214 78.704 245.622 78.08 248.862 77.504L249.078 79.88C246.078 80.504 242.91 81.176 240.486 81.656L239.934 79.04ZM247.086 72.896L249.15 73.4C248.718 74.768 248.334 76.28 247.974 77.288L246.246 76.808C246.558 75.728 246.918 74.048 247.086 72.896ZM243.486 66.56H245.958V79.496L243.486 79.928V66.56ZM243.366 59.624H244.878V60.152H245.694V60.896C244.758 62.72 243.294 65.192 240.918 67.352C240.534 66.776 239.718 65.864 239.19 65.48C241.206 63.752 242.622 61.496 243.366 59.624ZM243.726 59.624H245.742C247.134 60.824 248.91 62.552 249.774 63.776L247.926 65.984C247.158 64.76 245.526 62.744 244.23 61.664H243.726V59.624ZM275.622 73.832L274.998 65.624L274.878 62.048H278.838L278.718 65.624L278.094 73.832H275.622ZM276.87 80.24C275.622 80.24 274.734 79.352 274.734 78.104C274.734 76.856 275.646 75.992 276.87 75.992C278.07 75.992 278.982 76.856 278.982 78.104C278.982 79.352 278.07 80.24 276.87 80.24Z" fill="white"/>
<path d="M0 0H15V4.90141H5.34743V29H0V0Z" fill="white"/>
<path d="M335 106H320V101.099H329.653V77H335V106Z" fill="white"/>
</svg>
