<svg width="311" height="44" viewBox="0 0 311 44" fill="none" xmlns="http://www.w3.org/2000/svg">
<path d="M76.2058 26V12.68H78.8698V23.768H84.2878V26H76.2058ZM88.0521 26V12.68H90.7161V26H88.0521ZM95.4335 26V12.68H98.1335L102.004 19.79L103.354 22.67H103.444C103.3 21.284 103.084 19.502 103.084 17.99V12.68H105.622V26H102.904L99.0515 18.872L97.7015 16.028H97.6115C97.7375 17.45 97.9535 19.124 97.9535 20.672V26H95.4335ZM110.356 26V12.68H118.528V14.894H113.02V17.972H117.682V20.222H113.02V23.768H118.726V26H110.356ZM122.474 13.67C123.176 13.652 123.896 13.616 124.238 13.58C125.732 13.436 128.702 13.184 131.996 12.896C133.868 12.752 135.83 12.626 137.108 12.572L137.126 14.894C136.154 14.894 134.606 14.912 133.634 15.128C131.474 15.704 129.836 18.044 129.836 20.186C129.836 23.138 132.608 24.218 135.65 24.362L134.804 26.828C131.042 26.594 127.478 24.56 127.478 20.654C127.478 18.08 128.936 16.028 130.142 15.11C128.468 15.29 124.778 15.686 122.708 16.136L122.474 13.67ZM134.552 16.658C134.984 17.288 135.632 18.386 135.974 19.106L134.624 19.7C134.156 18.728 133.778 18.008 133.22 17.216L134.552 16.658ZM136.55 15.83C137.018 16.46 137.702 17.522 138.08 18.224L136.73 18.872C136.244 17.9 135.83 17.216 135.254 16.424L136.55 15.83ZM150.248 11.564C150.194 11.996 150.14 12.752 150.122 13.184C149.924 20.33 148.232 23.984 144.254 26.81L142.148 25.118C142.904 24.704 143.804 24.11 144.524 23.372C146.882 21.032 147.71 17.972 147.728 13.22C147.728 12.824 147.656 11.996 147.584 11.564H150.248ZM156.35 15.434C156.296 15.722 156.242 16.172 156.242 16.37C156.17 18.332 155.936 23.354 155.162 25.19C154.784 26.09 154.082 26.576 152.858 26.576C151.814 26.576 150.752 26.486 149.87 26.414L149.582 24.02C150.482 24.164 151.4 24.272 152.12 24.272C152.696 24.272 152.948 24.074 153.128 23.624C153.65 22.49 153.902 18.89 153.902 16.946H145.118C144.506 16.946 143.498 16.964 142.742 17.036V14.66C143.498 14.75 144.416 14.786 145.1 14.786H153.434C153.902 14.786 154.37 14.75 154.802 14.66L156.35 15.434ZM164.45 12.32C165.692 13.166 168.032 15.038 169.094 16.136L167.258 18.008C166.322 17 164.054 15.038 162.74 14.138L164.45 12.32ZM162.182 24.308C165.008 23.912 167.33 22.994 169.076 21.968C172.154 20.132 174.494 17.396 175.646 14.966L177.032 17.486C175.682 19.934 173.288 22.418 170.39 24.164C168.554 25.262 166.232 26.252 163.712 26.684L162.182 24.308ZM187.256 17.576C189.47 18.854 192.8 21.158 194.474 22.49L192.746 24.542C191.18 23.066 187.76 20.546 185.654 19.214L187.256 17.576ZM195.734 14.516C195.518 14.858 195.284 15.362 195.122 15.812C194.582 17.468 193.484 19.772 191.864 21.77C190.172 23.876 187.868 25.892 184.43 27.188L182.342 25.388C186.104 24.218 188.246 22.328 189.794 20.528C191 19.106 192.116 17.036 192.458 15.632H186.374L187.202 13.598H192.332C192.89 13.598 193.484 13.508 193.898 13.382L195.734 14.516ZM189.776 11.744C189.344 12.374 188.876 13.202 188.66 13.58C187.454 15.758 185.15 18.512 182.558 20.294L180.632 18.8C183.782 16.856 185.438 14.39 186.356 12.824C186.626 12.392 187.004 11.564 187.166 10.934L189.776 11.744ZM203.33 12.32C204.572 13.166 206.912 15.038 207.974 16.136L206.138 18.008C205.202 17 202.934 15.038 201.62 14.138L203.33 12.32ZM201.062 24.308C203.888 23.912 206.21 22.994 207.956 21.968C211.034 20.132 213.374 17.396 214.526 14.966L215.912 17.486C214.562 19.934 212.168 22.418 209.27 24.164C207.434 25.262 205.112 26.252 202.592 26.684L201.062 24.308ZM226.496 21.374L226.028 15.218L225.938 12.536H228.908L228.818 15.218L228.35 21.374H226.496ZM227.432 26.18C226.496 26.18 225.83 25.514 225.83 24.578C225.83 23.642 226.514 22.994 227.432 22.994C228.332 22.994 229.016 23.642 229.016 24.578C229.016 25.514 228.332 26.18 227.432 26.18Z" fill="#06C152"/>
<line x1="8.74228e-08" y1="43" x2="311" y2="43" stroke="#06C152" stroke-width="2"/>
<circle cx="150" cy="4" r="4" fill="#06C152"/>
<circle cx="170" cy="4" r="4" fill="#06C152"/>
<circle cx="190" cy="4" r="4" fill="#06C152"/>
<circle cx="210" cy="4" r="4" fill="#06C152"/>
</svg>
