<svg width="28" height="289" viewBox="0 0 28 289" fill="none" xmlns="http://www.w3.org/2000/svg">
<path d="M9.828 11.288V13.276H18.144V11.288H9.828ZM6.72 8.824H21.42V15.712H6.72V8.824ZM11.984 14.676L15.82 14.9C15.26 16.412 14.56 17.84 14.056 18.848L11.116 18.428C11.48 17.308 11.844 15.796 11.984 14.676ZM4.368 17.42H24.08V26.576H20.72V20.304H7.56V26.576H4.368V17.42ZM6.16 22.768H22.148V25.652H6.16V22.768ZM2.212 4.596H26.096V10.588H22.848V7.452H5.264V10.588H2.212V4.596ZM21 0.367999L24.612 1.46C23.408 3.056 22.148 4.68 21.14 5.744L18.424 4.708C19.32 3.504 20.412 1.712 21 0.367999ZM3.752 1.852L6.664 0.619999C7.616 1.684 8.708 3.168 9.156 4.204L6.076 5.548C5.684 4.54 4.676 2.972 3.752 1.852ZM10.78 1.152L13.72 0.115999C14.504 1.236 15.456 2.832 15.848 3.868L12.74 5.016C12.404 3.98 11.536 2.328 10.78 1.152ZM1.568 51.364H26.544V54.108H1.568V51.364ZM1.624 38.792H26.432V41.564H1.624V38.792ZM2.772 43.804H25.368V46.436H2.772V43.804ZM4.172 47.668H24.052V50.104H4.172V47.668ZM12.292 45.148H15.624V60.52H12.292V45.148ZM9.856 34.2H12.992V40.108H9.856V34.2ZM15.036 34.2H18.228V39.912H15.036V34.2ZM11.676 52.596L14.308 53.772C11.648 56.684 7.168 59.064 2.856 60.184C2.408 59.372 1.428 58.084 0.7 57.384C4.928 56.572 9.38 54.724 11.676 52.596ZM16.296 52.512C18.564 54.724 22.932 56.46 27.3 57.188C26.544 57.888 25.536 59.288 25.032 60.212C20.608 59.092 16.324 56.712 13.692 53.548L16.296 52.512ZM21.476 34.424L25.004 35.264C24.108 36.804 23.156 38.316 22.428 39.352L19.712 38.512C20.356 37.364 21.084 35.656 21.476 34.424ZM17.78 40.444L21.336 41.256C20.58 42.6 19.852 43.832 19.264 44.728L16.408 43.916C16.912 42.908 17.5 41.48 17.78 40.444ZM3.64 35.32L6.524 34.34C7.336 35.544 8.26 37.224 8.652 38.316L5.6 39.408C5.292 38.316 4.396 36.608 3.64 35.32ZM7.196 41.592L10.444 41.088C10.92 41.872 11.452 42.964 11.676 43.72L8.26 44.308C8.092 43.58 7.616 42.404 7.196 41.592ZM12.516 84.832H17.556V87.016H12.516V84.832ZM10.78 70.804H19.376V73.268H10.78V70.804ZM10.22 77.02H27.16V79.624H10.22V77.02ZM13.244 80.856H19.012V90.992H13.244V88.696H16.408V83.18H13.244V80.856ZM11.256 80.856H13.832V92.616H11.256V80.856ZM13.636 68.312H16.52V72.456H13.636V68.312ZM24.22 80.66L26.908 81.248C25.256 87.1 22.176 91.692 17.948 94.576C17.584 94.016 16.632 92.896 16.044 92.392C20.104 89.984 22.848 85.84 24.22 80.66ZM11.34 73.66L13.496 73.156C13.916 74.248 14.224 75.732 14.252 76.712L11.984 77.272C11.984 76.32 11.704 74.808 11.34 73.66ZM22.344 70.552L24.556 69.404C25.704 70.776 26.796 72.624 27.3 73.884L24.976 75.2C24.528 73.912 23.408 71.952 22.344 70.552ZM16.324 73.156L18.872 73.632C18.424 74.92 18.004 76.236 17.668 77.16L15.596 76.712C15.876 75.676 16.212 74.192 16.324 73.156ZM1.204 69.292H10.892V72.232H1.204V69.292ZM3.64 75.284H8.54V78H3.64V75.284ZM3.64 80.996H8.54V83.712H3.64V80.996ZM2.324 70.888H5.068V88.472H2.324V70.888ZM6.888 70.86H9.688V94.52H6.888V70.86ZM0.672 87.828C2.66 87.548 5.544 87.016 8.428 86.512L8.652 89.34C6.076 89.9 3.416 90.46 1.232 90.908L0.672 87.828ZM19.796 68.228H22.764C22.652 80.072 23.408 90.572 24.668 90.628C25.004 90.628 25.228 89.312 25.34 87.072C25.816 87.744 27.02 88.64 27.496 88.948C26.796 93.512 25.452 94.52 24.5 94.492C20.58 94.436 19.936 83.796 19.796 68.228ZM20.524 111.524C21.196 112.504 22.176 114.156 22.736 115.248L20.636 116.172C19.936 114.66 19.348 113.596 18.508 112.364L20.524 111.524ZM23.604 110.264C24.304 111.216 25.34 112.84 25.9 113.904L23.856 114.884C23.128 113.4 22.484 112.392 21.616 111.16L23.604 110.264ZM2.072 106.96C3.164 106.932 4.228 106.876 4.788 106.82C7.056 106.624 11.76 106.204 16.604 105.784C19.432 105.56 22.512 105.364 24.444 105.308L24.472 108.836C22.988 108.864 20.58 108.864 19.124 109.228C15.792 110.068 13.244 113.652 13.244 116.9C13.244 121.408 17.528 123.032 22.176 123.256L20.888 127.064C15.148 126.672 9.632 123.592 9.632 117.628C9.632 113.68 11.928 110.572 13.776 109.172C11.2 109.424 5.6 110.04 2.436 110.768L2.072 106.96ZM6.944 136.116L10.36 136.984C8.876 141.156 6.412 145.188 3.92 147.708C3.276 147.12 1.848 146 1.036 145.524C3.556 143.34 5.74 139.756 6.944 136.116ZM7.532 139.308H25.34V142.556H5.908L7.532 139.308ZM5.544 145.916H24.696V149.052H8.932V154.932H5.544V145.916ZM1.12 153.28H26.88V156.528H1.12V153.28ZM13.776 140.988H17.248V162.52H13.776V140.988ZM0.644 187.784C2.884 187.336 6.16 186.552 9.296 185.768L9.716 188.932C6.86 189.744 3.836 190.556 1.372 191.2L0.644 187.784ZM7.84 170.396H11.116V196.492H7.84V170.396ZM2.576 173.476H5.712V188.568H2.576V173.476ZM12.096 172.104H23.772V175.408H12.096V172.104ZM22.988 172.104H23.548L24.164 171.992L26.404 172.636C25.032 184.76 20.58 192.348 13.356 196.492C12.852 195.596 11.844 194.224 11.06 193.58C17.5 190.36 21.784 182.856 22.988 172.86V172.104ZM16.212 175.604C17.78 183.724 21.112 190.5 27.468 193.58C26.684 194.224 25.592 195.596 25.06 196.52C18.228 192.768 14.924 185.6 13.02 176.22L16.212 175.604ZM14.0273 226.392C8.95934 226.392 5.96334 223.564 5.96334 216.704V205.28H10.0793V217.068C10.0793 221.352 11.5913 222.808 14.0273 222.808C16.4633 222.808 18.0593 221.352 18.0593 217.068V205.28H22.0353V216.704C22.0353 223.564 19.0953 226.392 14.0273 226.392ZM7.21011 257V236.28H14.0141C18.5781 236.28 22.1061 237.876 22.1061 242.804C22.1061 247.536 18.5781 249.636 14.1261 249.636H11.3541V257H7.21011ZM11.3541 246.36H13.8461C16.7021 246.36 18.0741 245.156 18.0741 242.804C18.0741 240.368 16.5621 239.584 13.7061 239.584H11.3541V246.36ZM12.544 280.804L11.816 271.228L11.676 267.056H16.296L16.156 271.228L15.428 280.804H12.544ZM14 288.28C12.544 288.28 11.508 287.244 11.508 285.788C11.508 284.332 12.572 283.324 14 283.324C15.4 283.324 16.464 284.332 16.464 285.788C16.464 287.244 15.4 288.28 14 288.28Z" fill="#EC2C2C"/>
</svg>
