<svg width="28" height="163" viewBox="0 0 28 163" fill="none" xmlns="http://www.w3.org/2000/svg">
<path d="M1.512 11.344H26.6V14.676H1.512V11.344ZM3.612 4.428H24.556V7.76H3.612V4.428ZM12.18 0.227999H15.736V26.52H12.18V0.227999ZM11.592 13.276L14.504 14.48C11.816 18.932 7.448 22.992 3.024 25.288C2.464 24.448 1.344 23.104 0.56 22.404C4.872 20.528 9.296 16.888 11.592 13.276ZM16.352 13.304C18.62 16.916 23.044 20.556 27.328 22.404C26.544 23.076 25.424 24.448 24.864 25.344C20.524 23.048 16.24 18.904 13.552 14.48L16.352 13.304ZM11.816 35.516H23.8V38.4H11.816V35.516ZM12.852 50.552H25.928V53.52H12.852V50.552ZM11.144 56.796H27.104V59.764H11.144V56.796ZM22.82 35.516H23.464L24.08 35.404L26.32 36.384C24.108 43.02 19.068 46.716 12.768 48.704C12.376 47.864 11.564 46.576 10.92 45.904C16.492 44.476 21.168 41.032 22.82 36.048V35.516ZM16.156 38.036C18.088 41.872 22.176 44.672 27.496 45.82C26.796 46.464 25.9 47.724 25.452 48.536C19.796 47.024 15.68 43.776 13.216 38.988L16.156 38.036ZM17.612 47.22H20.916V58.7H17.612V47.22ZM5.04 34.256L7.952 35.348C6.804 37.476 5.516 39.968 4.424 41.536L2.184 40.556C3.192 38.904 4.396 36.216 5.04 34.256ZM8.26 37.56L10.976 38.792C8.96 42.012 6.216 45.904 4.088 48.34L2.156 47.248C4.228 44.7 6.804 40.584 8.26 37.56ZM0.728 40.892L2.324 38.596C3.808 39.884 5.544 41.648 6.272 42.936L4.536 45.54C3.864 44.196 2.156 42.236 0.728 40.892ZM7.42 44.252L9.632 43.328C10.724 45.204 11.788 47.668 12.124 49.292L9.744 50.356C9.436 48.732 8.484 46.184 7.42 44.252ZM0.7 46.576C3.276 46.492 7.056 46.352 10.752 46.184L10.724 48.844C7.28 49.096 3.696 49.32 0.98 49.516L0.7 46.576ZM8.036 51.224L10.388 50.468C11.088 52.064 11.816 54.164 12.124 55.564L9.66 56.432C9.38 55.032 8.652 52.876 8.036 51.224ZM1.904 50.692L4.676 51.168C4.396 53.856 3.78 56.656 2.968 58.448C2.38 58.084 1.12 57.496 0.42 57.216C1.232 55.564 1.68 53.072 1.904 50.692ZM5.04 48.06H7.98V60.548H5.04V48.06ZM16.296 81.64V84.244H23.436V81.64H16.296ZM13.552 79.232H26.32V86.652H13.552V79.232ZM19.656 71.168C18.368 73.408 15.932 76.18 13.3 77.804C12.964 76.992 12.292 75.816 11.76 75.116C14.364 73.632 16.912 70.636 18.088 68.228H21C22.652 70.832 25.116 73.408 27.608 74.584C27.02 75.368 26.32 76.572 25.9 77.496C23.52 76.04 21.028 73.408 19.656 71.168ZM18.34 76.292H21.308V81.752C21.308 86.26 20.468 91.356 13.804 94.576C13.384 93.876 12.432 92.784 11.76 92.224C17.64 89.536 18.34 85.364 18.34 81.724V76.292ZM21.588 85.196C22.568 88.136 24.612 90.656 27.468 91.86C26.768 92.448 25.788 93.68 25.34 94.492C22.204 92.84 20.188 89.648 19.04 85.84L21.588 85.196ZM15.484 75.144H24.108V77.72H15.484V75.144ZM3.752 73.52H11.956V76.04H3.752V73.52ZM3.752 77.748H11.956V80.296H3.752V77.748ZM2.184 82.004H11.76V84.608H2.184V82.004ZM6.832 70.832H9.492V83.46H6.832V70.832ZM7.784 85.896L9.072 85.448C9.66 86.568 10.192 88.052 10.416 89.004L9.016 89.536C8.848 88.528 8.316 87.016 7.784 85.896ZM5.964 86.26L7.392 86.008C7.84 87.464 8.232 89.312 8.316 90.516L6.804 90.852C6.748 89.62 6.384 87.716 5.964 86.26ZM4.032 86.428L5.46 86.26C5.74 87.912 5.852 90.068 5.768 91.44L4.256 91.636C4.34 90.208 4.256 88.108 4.032 86.428ZM1.96 85.84L3.808 86.176C3.668 88.78 3.36 91.384 2.212 92.952L0.532 92.028C1.512 90.6 1.848 88.22 1.96 85.84ZM2.184 69.264H12.516V71.98H4.928V83.796H2.184V69.264ZM10.304 82.004H13.076C13.076 82.004 13.076 82.76 13.048 83.124C12.768 89.928 12.488 92.56 11.816 93.428C11.34 94.044 10.836 94.296 10.164 94.38C9.576 94.492 8.652 94.52 7.672 94.492C7.616 93.68 7.364 92.588 6.972 91.888C7.728 91.972 8.344 91.972 8.68 91.972C9.016 91.972 9.212 91.888 9.436 91.636C9.828 91.076 10.08 88.836 10.304 82.48V82.004ZM12.964 104.076C12.796 104.804 12.6 105.672 12.46 106.344C12.18 107.604 11.872 109.284 11.564 110.684C10.696 114.576 8.456 122.416 5.572 127.036L1.988 125.608C5.236 121.212 7.308 113.96 8.064 110.516C8.596 108.024 8.876 105.7 8.848 103.656L12.964 104.076ZM22.4 106.624C24.108 109.032 26.572 115.052 27.412 117.964L23.912 119.588C23.184 116.228 21.084 110.46 19.124 108.024L22.4 106.624ZM1.792 109.704C2.828 109.76 3.724 109.732 4.76 109.704C6.944 109.648 12.152 109.06 14.196 109.06C17.108 109.06 19.152 110.348 19.152 114.324C19.152 117.544 18.76 121.996 17.612 124.376C16.688 126.308 15.148 126.896 13.104 126.896C12.04 126.896 10.752 126.728 9.772 126.504L9.212 122.892C10.248 123.2 11.844 123.48 12.572 123.48C13.496 123.48 14.168 123.2 14.616 122.276C15.372 120.736 15.708 117.404 15.708 114.688C15.708 112.504 14.784 112.196 13.076 112.196C11.424 112.196 6.72 112.784 5.208 112.98C4.396 113.092 2.968 113.288 2.128 113.428L1.792 109.704ZM9.436 137.656C12.04 138.468 18.004 139.504 20.44 139.784L19.6 143.172C16.8 142.78 10.696 141.52 8.568 140.96L9.436 137.656ZM9.632 143.172C9.24 144.712 8.764 148.016 8.568 149.612C11.06 147.792 13.776 146.98 16.66 146.98C21.476 146.98 24.276 149.948 24.276 153.252C24.276 158.292 20.3 162.156 8.904 161.148L7.84 157.564C16.072 158.684 20.44 156.696 20.44 153.168C20.44 151.404 18.76 150.088 16.352 150.088C13.244 150.088 10.472 151.264 8.736 153.336C8.232 153.924 7.952 154.372 7.728 154.932L4.536 154.148C5.096 151.46 5.712 146.056 5.908 142.668L9.632 143.172Z" fill="#EC2C2C"/>
</svg>
