<svg width="134" height="24" viewBox="0 0 134 24" fill="none" xmlns="http://www.w3.org/2000/svg">
<path d="M7.86643 3.05829H0V0.485352H23.9789V3.05829H11.051V23.9792H7.86643V3.05829ZM17.1248 17.1462L14.6573 6.72788H17.9473L20.1195 15.8808C20.2039 16.2182 20.4569 16.3658 20.8576 16.3658H23.2408V18.9388H19.4868C18.2636 18.9388 17.4833 18.3272 17.1248 17.1462Z" fill="#EC2C2C"/>
<path d="M38.088 16.1547V20.3726C38.088 20.7944 38.2989 21.0053 38.7207 21.0053H51.3112V23.5782H37.3288C35.7049 23.5782 34.9035 22.7768 34.9035 21.1529V16.1968H32.9L31.7611 21.9121C31.5081 23.0299 30.6223 23.5782 29.1249 23.5782H27.7541L27.1425 21.0053H28.3235C28.6188 21.0053 28.8297 20.8366 28.914 20.478L29.7998 16.1968H28.3024V7.1072H32.4571V4.42882H27.4167V1.85589H32.4571V0H35.6416V1.85589H40.7242V4.42882H35.6416V7.1072H39.9017V13.7926C39.9017 15.1845 39.2901 15.9859 38.088 16.1757V16.1547ZM31.4026 13.6239H36.19C36.6118 13.6239 36.8227 13.413 36.8227 12.9912V9.68014H31.4026V13.6239ZM44.9633 0.759227V15.1845H42.2849V0.759227H44.9633ZM50.2146 0V17.5255C50.2146 17.9473 50.0459 18.3902 49.7084 18.7909C49.371 19.1916 48.9281 19.4025 48.3376 19.4025H44.3727L43.9931 16.9139H46.4817C46.7137 16.9139 46.8824 16.8295 46.9879 16.703C47.0933 16.5765 47.1355 16.4288 47.1355 16.239V0H50.2146Z" fill="#EC2C2C"/>
<path d="M54.7705 21.0264H63.7547V0H66.9392V4.82952H77.9902V7.40246H66.9392V21.0053H78.644V23.5782H54.7705V21.0053V21.0264Z" fill="#EC2C2C"/>
<path d="M86.3201 21.9332H82.1022V19.5501H86.3201V17.5677H82.3764V5.79965H86.3201V3.73286H82.1022V1.34974H86.3201V0H89.5047V1.34974H93.7226V3.73286H89.5047V5.79965H93.5539V15.1634C93.5539 16.7873 92.7525 17.5888 91.1286 17.5888H89.5047V19.5712H93.7226V21.9543H89.5047V24H86.3201V21.9543V21.9332ZM86.3201 10.5448V7.97188H84.5486V10.5448H86.3201ZM86.3201 15.3954V12.717H84.5486V15.3954H86.3201ZM91.3816 10.5448V7.97188H89.5047V10.5448H91.3816ZM90.7489 15.3954C91.1707 15.3954 91.3816 15.1845 91.3816 14.7627V12.717H89.5047V15.3954H90.7489ZM95.0301 20.4148L98.1092 10.6503H94.6505V8.07733H105.976V10.6503H101.315L98.1936 21.0264H102.137C102.728 21.0264 102.981 20.8998 102.918 20.6678L101.737 15.29H104.31L105.575 21.6801C105.702 22.9666 104.9 23.5993 103.107 23.5993H95.0091V20.4148H95.0301ZM95.0934 0.674868H105.406V3.2478H95.0934V0.674868Z" fill="#EC2C2C"/>
<path d="M114.664 21.8278H109.434V19.2548H110.278V3.26889H109.434V0.674868H118.292V3.2478H117.258V23.9578H114.685V21.8067L114.664 21.8278ZM114.664 7.00176V3.26889H112.745V7.00176H114.664ZM114.664 13.2232V9.38488H112.745V13.2232H114.664ZM114.664 19.2548V15.6063H112.745V19.2548H114.664ZM127.972 21.9965L127.55 9.63796H118.397V7.14938H119.705L119.241 5.10369H121.371L121.835 7.14938H123.227L123.754 5.10369H125.884L125.357 7.14938H127.487L127.234 0.0843585H130.018L130.25 7.14938H131.241L131.156 1.85589H132.78L132.865 7.14938H133.35V9.63796H130.355L130.587 16.7663H130.967C131.178 16.7663 131.262 16.6608 131.304 16.4288L131.578 11.7258H133.392L132.97 17.4833C132.886 18.4534 132.485 18.9174 131.705 18.9174H130.671L130.714 20.71C130.735 21.0475 130.882 21.1951 131.22 21.1951H133.35V23.5782H130.355C128.921 23.5782 128.12 23.051 127.993 21.9754L127.972 21.9965ZM118.587 1.64499H120.949V0H124.134V1.64499H126.432V3.81722H118.587V1.64499ZM118.903 11.768H126.39V21.174C126.39 22.7979 125.589 23.5993 123.965 23.5993H118.903V11.768ZM123.817 16.471V13.9402H121.497V16.471H123.817ZM123.185 21.4271C123.606 21.4271 123.817 21.2162 123.817 20.7944V18.6432H121.497V21.4271H123.185Z" fill="#EC2C2C"/>
</svg>
