<svg width="284" height="157" viewBox="0 0 284 157" fill="none" xmlns="http://www.w3.org/2000/svg">
<path d="M177.76 13.9663C177.553 13.8298 177.28 13.8499 177.096 14.0144C176.955 14.1388 163.049 26.5039 154.739 23.6368C146.931 20.9423 142.974 2.58833 142.549 0.503749C142.547 0.489704 142.543 0.47566 142.539 0.463622C142.521 0.343242 142.462 0.232893 142.376 0.150633C142.312 0.0864305 142.24 0.0483101 142.172 0.0262404C142.149 0.018215 142.125 0.012196 142.103 0.00818334C142.099 0.00818334 142.081 0.00417066 142.051 0.00216432C141.975 -0.00385469 141.919 0.00417066 141.903 0.00818334C141.67 0.0503164 141.501 0.240918 141.465 0.463622C141.461 0.47566 141.459 0.489704 141.457 0.503749C141.032 2.58833 137.077 20.9423 129.267 23.6368C120.957 26.5039 107.049 14.1388 106.908 14.0144C106.724 13.8479 106.451 13.8278 106.244 13.9663C106.037 14.1027 105.949 14.3615 106.029 14.5963L115.467 42.045C115.543 42.2637 115.75 42.4121 115.981 42.4121H168.021C168.254 42.4121 168.461 42.2637 168.535 42.045L177.971 14.5963C178.051 14.3615 177.963 14.1027 177.756 13.9663H177.76Z" fill="white"/>
<path d="M167.193 45.4038H117.474C116.497 45.4038 115.704 46.1961 115.704 47.1734V48.9751C115.704 49.9524 116.497 50.7447 117.474 50.7447H167.193C168.17 50.7447 168.962 49.9524 168.962 48.9751V47.1734C168.962 46.1961 168.17 45.4038 167.193 45.4038Z" fill="white"/>
<path d="M49.056 71.3366C49.648 71.3846 50.8 71.4486 51.632 71.4486C53.52 71.4486 58.8 71.4486 60.224 71.4486C60.976 71.4486 61.68 71.3686 62.112 71.3366V73.8646C61.728 73.8486 60.912 73.7686 60.24 73.7686C58.784 73.7686 53.52 73.7686 51.632 73.7686C50.736 73.7686 49.664 73.8166 49.056 73.8646V71.3366ZM65.904 71.8966H79.888V73.2406H65.904V71.8966ZM65.728 78.5046H80.032V79.9446H65.728V78.5046ZM69.52 75.0166V75.8966H76.096V75.0166H69.52ZM67.648 73.7846H78.08V77.1286H67.648V73.7846ZM68.992 77.2886L70.64 76.8086C70.992 77.2726 71.36 77.9286 71.504 78.3926L69.776 78.9686C69.664 78.4886 69.312 77.8006 68.992 77.2886ZM75.04 76.6966L76.72 77.2726C76.32 77.9286 75.952 78.5366 75.632 78.9686L74.112 78.4246C74.416 77.9606 74.832 77.2086 75.04 76.6966ZM68.736 69.3846V70.0886H76.768V69.3846H68.736ZM68.736 67.5126V68.2006H76.768V67.5126H68.736ZM66.976 66.2486H78.624V71.3526H66.976V66.2486ZM70.288 65.1446H71.904V70.8886H70.288V65.1446ZM73.536 65.1446H75.184V70.8886H73.536V65.1446ZM89.136 74.7606H91.024V78.8726H89.136V74.7606ZM85.792 68.4086H94.496V69.6886H85.792V68.4086ZM87.28 71.5606V72.3926H92.976V71.5606H87.28ZM85.52 70.3126H94.848V73.6406H85.52V70.3126ZM84.432 74.2326H95.936V80.1366H94.048V75.6246H86.24V80.1686H84.432V74.2326ZM85.408 76.3926H94.88V77.5926H85.408V76.3926ZM85.408 78.4246H94.864V79.8006H85.408V78.4246ZM89.12 65.1606H91.104V67.3206H89.12V65.1606ZM83.312 66.0726H97.04V69.5926H95.136V67.6886H85.136V69.5926H83.312V66.0726ZM100.752 68.2646C101.44 68.3446 102.304 68.3766 102.88 68.3766C104.864 68.3766 107.024 68.0406 108.576 67.5446L108.624 69.4006C107.248 69.7846 104.944 70.2006 102.896 70.1846C102.256 70.1846 101.584 70.1686 100.896 70.1366L100.752 68.2646ZM106.976 65.8646C106.768 66.7126 106.384 68.2806 105.952 69.6406C105.216 71.9446 103.776 74.9206 102.416 76.8086L100.48 75.8166C101.92 74.0566 103.36 71.2566 103.984 69.5286C104.368 68.3766 104.72 66.8886 104.768 65.6566L106.976 65.8646ZM110.736 70.8566C110.688 71.5286 110.704 72.2006 110.72 72.9046C110.752 73.8486 110.896 76.2326 110.896 77.1286C110.896 78.6166 110.096 79.7846 107.808 79.7846C105.824 79.7846 104.256 78.8886 104.256 77.1286C104.256 75.5766 105.568 74.3606 107.792 74.3606C110.592 74.3606 112.8 75.7686 114.128 76.9686L113.072 78.6966C111.92 77.6246 110.096 75.9766 107.68 75.9766C106.752 75.9766 106.144 76.3766 106.144 76.9366C106.144 77.5286 106.656 77.9446 107.536 77.9446C108.624 77.9446 108.976 77.3366 108.976 76.4406C108.976 75.4806 108.8 72.5366 108.72 70.8566H110.736ZM113.488 71.7046C112.56 70.9526 110.736 69.9126 109.632 69.4166L110.672 67.8486C111.824 68.3446 113.792 69.4166 114.624 70.0086L113.488 71.7046ZM125.184 66.2646H131.584V68.0886H125.184V66.2646ZM124.56 70.7606H132.16V72.5686H124.56V70.7606ZM126.56 71.7686L128.624 72.1366C128.208 74.3926 127.616 76.9526 127.104 78.6006L125.376 78.2166C125.856 76.5046 126.352 73.8006 126.56 71.7686ZM124.144 77.9126C125.904 77.8006 128.64 77.6246 131.232 77.4326V79.1446C128.864 79.4006 126.352 79.6246 124.48 79.8006L124.144 77.9126ZM128.912 74.9846L130.544 74.3286C131.392 75.9446 132.112 78.0246 132.384 79.4326L130.624 80.1526C130.416 78.7446 129.696 76.6006 128.912 74.9846ZM117.44 66.6806H124.432V68.3286H117.44V66.6806ZM117.216 75.9606H124.544V77.6406H117.216V75.9606ZM120.064 65.1766H121.856V69.8486H120.064V65.1766ZM120.24 69.8486H121.648V74.2966H121.84V80.1686H120.064V74.2966H120.24V69.8486ZM119.248 72.7446V73.7046H122.704V72.7446H119.248ZM119.248 70.5526V71.4966H122.704V70.5526H119.248ZM117.792 69.2246H124.24V75.0326H117.792V69.2246ZM141.152 74.6486H144.032V75.8966H141.152V74.6486ZM140.16 66.6326H145.072V68.0406H140.16V66.6326ZM139.84 70.1846H149.52V71.6726H139.84V70.1846ZM141.568 72.3766H144.864V78.1686H141.568V76.8566H143.376V73.7046H141.568V72.3766ZM140.432 72.3766H141.904V79.0966H140.432V72.3766ZM141.792 65.2086H143.44V67.5766H141.792V65.2086ZM147.84 72.2646L149.376 72.6006C148.432 75.9446 146.672 78.5686 144.256 80.2166C144.048 79.8966 143.504 79.2566 143.168 78.9686C145.488 77.5926 147.056 75.2246 147.84 72.2646ZM140.48 68.2646L141.712 67.9766C141.952 68.6006 142.128 69.4486 142.144 70.0086L140.848 70.3286C140.848 69.7846 140.688 68.9206 140.48 68.2646ZM146.768 66.4886L148.032 65.8326C148.688 66.6166 149.312 67.6726 149.6 68.3926L148.272 69.1446C148.016 68.4086 147.376 67.2886 146.768 66.4886ZM143.328 67.9766L144.784 68.2486C144.528 68.9846 144.288 69.7366 144.096 70.2646L142.912 70.0086C143.072 69.4166 143.264 68.5686 143.328 67.9766ZM134.688 65.7686H140.224V67.4486H134.688V65.7686ZM136.08 69.1926H138.88V70.7446H136.08V69.1926ZM136.08 72.4566H138.88V74.0086H136.08V72.4566ZM135.328 66.6806H136.896V76.7286H135.328V66.6806ZM137.936 66.6646H139.536V80.1846H137.936V66.6646ZM134.384 76.3606C135.52 76.2006 137.168 75.8966 138.816 75.6086L138.944 77.2246C137.472 77.5446 135.952 77.8646 134.704 78.1206L134.384 76.3606ZM145.312 65.1606H147.008C146.944 71.9286 147.376 77.9286 148.096 77.9606C148.288 77.9606 148.416 77.2086 148.48 75.9286C148.752 76.3126 149.44 76.8246 149.712 77.0006C149.312 79.6086 148.544 80.1846 148 80.1686C145.76 80.1366 145.392 74.0566 145.312 65.1606ZM154.176 71.1766H157.872V72.9366H154.176V71.1766ZM157.136 71.1766H159.008C159.008 71.1766 158.992 71.6566 158.992 71.8806C158.928 75.2726 158.848 76.6966 158.48 77.1926C158.16 77.5926 157.84 77.7366 157.376 77.8166C156.944 77.8806 156.256 77.8806 155.504 77.8646C155.472 77.3046 155.264 76.5526 154.976 76.0726C155.552 76.1366 156.096 76.1366 156.352 76.1366C156.576 76.1366 156.72 76.1046 156.848 75.9446C157.04 75.6886 157.104 74.5686 157.136 71.4646V71.1766ZM161.952 66.1686L163.104 65.0006C163.984 65.4646 165.168 66.2006 165.744 66.7286L164.512 68.0246C163.984 67.4646 162.848 66.6806 161.952 66.1686ZM163.84 70.2806L165.776 70.7446C164.432 74.9206 162.08 78.1686 158.912 80.1206C158.624 79.7206 157.92 78.9206 157.52 78.5366C160.592 76.8886 162.736 73.9926 163.84 70.2806ZM154.288 67.5606H166.624V69.4486H154.288V67.5606ZM153.008 67.5606H155.024V72.2646C155.024 74.6646 154.752 78.2166 153.296 80.3766C152.976 79.9926 152.112 79.2886 151.664 79.0646C152.896 77.1446 153.008 74.3446 153.008 72.2486V67.5606ZM159.504 65.1766H161.52C161.408 71.7046 162.88 78.1206 164.496 78.1206C164.864 78.1206 165.056 77.3046 165.152 75.2886C165.584 75.7366 166.272 76.1846 166.784 76.3766C166.48 79.3526 165.84 80.0726 164.336 80.0726C160.848 80.0726 159.552 72.4726 159.504 65.1766ZM169.2 66.8886H175.232V68.6966H169.2V66.8886ZM175.472 68.5686H182.64V70.4086H175.472V68.5686ZM171.28 67.6246H173.168V75.6726H171.28V67.6246ZM181.744 68.5686H183.632C183.632 68.5686 183.632 69.1926 183.616 69.4326C183.44 75.9446 183.264 78.3126 182.688 79.0806C182.272 79.6566 181.872 79.8326 181.264 79.9286C180.72 80.0246 179.84 80.0086 178.96 79.9766C178.928 79.4326 178.704 78.6166 178.368 78.0886C179.216 78.1686 179.984 78.1686 180.352 78.1686C180.656 78.1686 180.816 78.1046 180.992 77.8966C181.424 77.4006 181.6 75.0326 181.744 68.9526V68.5686ZM168.976 75.4646C170.592 75.1286 173.088 74.4886 175.392 73.8806L175.648 75.7046C173.504 76.3286 171.2 76.9846 169.424 77.4646L168.976 75.4646ZM177.728 65.4166H179.68C179.648 72.0886 179.616 77.3526 174.832 80.2166C174.56 79.7206 173.952 79.0006 173.472 78.6486C177.888 76.1686 177.696 71.6086 177.728 65.4166ZM192.832 65.1766H194.8V67.7366H192.832V65.1766ZM186.976 66.5686H200.688V70.0086H198.704V68.2486H188.88V70.0086H186.976V66.5686ZM188.4 69.5126H199.392V71.0646H188.4V69.5126ZM186.848 74.5846H200.912V76.2486H186.848V74.5846ZM188.656 72.0246H199.072V73.5766H188.656V72.0246ZM194.784 74.9206C195.728 77.0326 197.808 78.2006 201.136 78.5526C200.736 78.9526 200.24 79.7206 200 80.2326C196.336 79.6406 194.288 78.1206 193.056 75.2726L194.784 74.9206ZM192.784 68.6006H194.72V73.0486C194.72 75.8646 193.552 78.6166 187.728 80.1846C187.52 79.7686 186.96 79.0326 186.544 78.6326C192.08 77.3686 192.784 75.1766 192.784 73.0326V68.6006ZM212.96 65.1606H214.864V70.2806H212.96V65.1606ZM209.728 65.8966H218.208V67.0646H209.728V65.8966ZM210.112 67.6086H217.84V68.7126H210.112V67.6086ZM209.328 69.2566H218.528V70.4566H209.328V69.2566ZM212.048 73.9446V74.6326H215.936V73.9446H212.048ZM212.048 75.7206V76.4086H215.936V75.7206H212.048ZM212.048 72.1846V72.8406H215.936V72.1846H212.048ZM210.32 71.0006H217.744V77.5926H210.32V71.0006ZM214.448 78.3286L215.728 77.4006C216.768 78.0246 218.048 78.7926 218.768 79.3046L217.104 80.2006C216.496 79.7206 215.392 78.9206 214.448 78.3286ZM212.112 77.3206L213.6 78.3126C212.624 79.0646 211.024 79.8486 209.728 80.2646C209.44 79.9126 208.912 79.3846 208.544 79.0646C209.824 78.6966 211.344 77.9446 212.112 77.3206ZM205.984 65.1766L207.648 65.7526C206.992 67.0006 206.256 68.4246 205.648 69.3206L204.368 68.7926C204.928 67.8326 205.616 66.2806 205.984 65.1766ZM207.792 67.0646L209.344 67.7846C208.176 69.5766 206.624 71.8006 205.392 73.1766L204.288 72.5526C205.488 71.1126 206.944 68.7766 207.792 67.0646ZM203.504 68.9046L204.448 67.6246C205.28 68.3766 206.256 69.4166 206.64 70.1686L205.6 71.6406C205.248 70.8566 204.304 69.7206 203.504 68.9046ZM207.344 70.8566L208.688 70.3126C209.296 71.3846 209.904 72.7766 210.08 73.6886L208.64 74.3286C208.464 73.4166 207.92 71.9606 207.344 70.8566ZM203.456 72.1846C204.896 72.1046 206.96 71.9926 208.96 71.8646L208.976 73.4166C207.072 73.5926 205.104 73.7206 203.584 73.8326L203.456 72.1846ZM207.728 74.8566L209.056 74.4406C209.44 75.3366 209.776 76.5046 209.872 77.2726L208.448 77.7366C208.384 76.9686 208.08 75.7686 207.728 74.8566ZM204.144 74.5686L205.68 74.8246C205.52 76.3606 205.184 77.9446 204.72 78.9686C204.4 78.7606 203.696 78.4566 203.328 78.2966C203.776 77.3526 204.016 75.9126 204.144 74.5686ZM205.904 73.0326H207.552V80.1846H205.904V73.0326ZM221.856 71.3366C222.448 71.3846 223.6 71.4486 224.432 71.4486C226.32 71.4486 231.6 71.4486 233.024 71.4486C233.776 71.4486 234.48 71.3686 234.912 71.3366V73.8646C234.528 73.8486 233.712 73.7686 233.04 73.7686C231.584 73.7686 226.32 73.7686 224.432 73.7686C223.536 73.7686 222.464 73.8166 221.856 73.8646V71.3366Z" fill="white"/>
<rect y="88.7446" width="284" height="68" rx="2" fill="white"/>
<path d="M20.8493 144.745V106.345L25.0493 110.545H12.4493V102.745H30.5693V144.745H20.8493ZM55.8654 145.465C52.4254 145.465 49.3454 144.625 46.6254 142.945C43.9054 141.225 41.7654 138.745 40.2054 135.505C38.6454 132.265 37.8654 128.345 37.8654 123.745C37.8654 119.145 38.6454 115.225 40.2054 111.985C41.7654 108.745 43.9054 106.285 46.6254 104.605C49.3454 102.885 52.4254 102.025 55.8654 102.025C59.3454 102.025 62.4254 102.885 65.1054 104.605C67.8254 106.285 69.9654 108.745 71.5254 111.985C73.0854 115.225 73.8654 119.145 73.8654 123.745C73.8654 128.345 73.0854 132.265 71.5254 135.505C69.9654 138.745 67.8254 141.225 65.1054 142.945C62.4254 144.625 59.3454 145.465 55.8654 145.465ZM55.8654 137.245C57.5054 137.245 58.9254 136.785 60.1254 135.865C61.3654 134.945 62.3254 133.485 63.0054 131.485C63.7254 129.485 64.0854 126.905 64.0854 123.745C64.0854 120.585 63.7254 118.005 63.0054 116.005C62.3254 114.005 61.3654 112.545 60.1254 111.625C58.9254 110.705 57.5054 110.245 55.8654 110.245C54.2654 110.245 52.8454 110.705 51.6054 111.625C50.4054 112.545 49.4454 114.005 48.7254 116.005C48.0454 118.005 47.7054 120.585 47.7054 123.745C47.7054 126.905 48.0454 129.485 48.7254 131.485C49.4454 133.485 50.4054 134.945 51.6054 135.865C52.8454 136.785 54.2654 137.245 55.8654 137.245ZM96.588 145.465C93.148 145.465 90.068 144.625 87.348 142.945C84.628 141.225 82.488 138.745 80.928 135.505C79.368 132.265 78.588 128.345 78.588 123.745C78.588 119.145 79.368 115.225 80.928 111.985C82.488 108.745 84.628 106.285 87.348 104.605C90.068 102.885 93.148 102.025 96.588 102.025C100.068 102.025 103.148 102.885 105.828 104.605C108.548 106.285 110.688 108.745 112.248 111.985C113.808 115.225 114.588 119.145 114.588 123.745C114.588 128.345 113.808 132.265 112.248 135.505C110.688 138.745 108.548 141.225 105.828 142.945C103.148 144.625 100.068 145.465 96.588 145.465ZM96.588 137.245C98.228 137.245 99.648 136.785 100.848 135.865C102.088 134.945 103.048 133.485 103.728 131.485C104.448 129.485 104.808 126.905 104.808 123.745C104.808 120.585 104.448 118.005 103.728 116.005C103.048 114.005 102.088 112.545 100.848 111.625C99.648 110.705 98.228 110.245 96.588 110.245C94.988 110.245 93.568 110.705 92.328 111.625C91.128 112.545 90.168 114.005 89.448 116.005C88.768 118.005 88.428 120.585 88.428 123.745C88.428 126.905 88.768 129.485 89.448 131.485C90.168 133.485 91.128 134.945 92.328 135.865C93.568 136.785 94.988 137.245 96.588 137.245Z" fill="#EC2C2C"/>
<path d="M127.858 117.701H135.922V119.663H127.858V117.701ZM126.958 105.227H133.33V107.135H126.958V105.227ZM127.426 103.355L129.856 103.841C128.326 106.469 126.166 108.881 122.926 110.825C122.62 110.285 121.9 109.493 121.414 109.115C124.384 107.549 126.382 105.353 127.426 103.355ZM132.646 105.227H133.06L133.42 105.119L134.914 105.911C132.808 111.509 128.002 115.181 122.638 116.981C122.368 116.387 121.828 115.505 121.378 115.055C126.346 113.615 130.99 110.123 132.646 105.587V105.227ZM124.6 109.187L126.202 107.783C127.444 108.665 129.082 109.943 129.874 110.879L128.128 112.445C127.444 111.509 125.842 110.123 124.6 109.187ZM134.914 112.211H137.164V120.383H134.914V112.211ZM128.776 112.211H135.994V114.173H128.776V120.347H126.616V113.813L128.254 112.211H128.776ZM146.74 106.559L148.72 105.605C149.89 106.919 151.042 108.683 151.564 109.943L149.458 111.077C148.99 109.817 147.838 107.927 146.74 106.559ZM140.89 116.027C142.744 115.397 145.606 114.245 148.234 113.147L148.738 115.271C146.344 116.351 143.68 117.467 141.646 118.331L140.89 116.027ZM151.438 114.407L153.112 112.895C154.75 114.605 157.054 116.999 158.08 118.565L156.244 120.347C155.29 118.745 153.094 116.243 151.438 114.407ZM153.886 104.489L156.28 104.705C155.434 112.859 153.256 117.737 147.352 120.401C147.046 119.915 146.146 118.943 145.624 118.475C151.366 116.315 153.22 111.923 153.886 104.489ZM142.942 104.561L145.21 104.471L145.606 116.171L143.356 116.261L142.942 104.561ZM168.358 108.863H175.846V111.041H168.358V108.863ZM160.654 117.305H177.106V119.483H160.654V117.305ZM167.134 103.679H169.456V118.511H167.134V103.679ZM189.958 106.415C189.706 108.251 189.346 110.357 188.716 112.481C187.636 116.117 186.088 118.349 184.126 118.349C182.11 118.349 180.454 116.135 180.454 113.093C180.454 108.953 184.072 105.389 188.734 105.389C193.18 105.389 196.006 108.485 196.006 112.427C196.006 116.207 193.684 118.889 189.148 119.591L187.78 117.467C188.482 117.377 188.986 117.287 189.472 117.179C191.758 116.621 193.558 114.983 193.558 112.337C193.558 109.511 191.794 107.495 188.68 107.495C184.864 107.495 182.776 110.609 182.776 112.877C182.776 114.695 183.496 115.577 184.18 115.577C184.954 115.577 185.638 114.425 186.394 111.995C186.916 110.303 187.312 108.233 187.492 106.343L189.958 106.415ZM208.282 104.705H215.482V106.757H208.282V104.705ZM207.58 109.763H216.13V111.797H207.58V109.763ZM209.83 110.897L212.152 111.311C211.684 113.849 211.018 116.729 210.442 118.583L208.498 118.151C209.038 116.225 209.596 113.183 209.83 110.897ZM207.112 117.809C209.092 117.683 212.17 117.485 215.086 117.269V119.195C212.422 119.483 209.596 119.735 207.49 119.933L207.112 117.809ZM212.476 114.515L214.312 113.777C215.266 115.595 216.076 117.935 216.382 119.519L214.402 120.329C214.168 118.745 213.358 116.333 212.476 114.515ZM199.57 105.173H207.436V107.027H199.57V105.173ZM199.318 115.613H207.562V117.503H199.318V115.613ZM202.522 103.481H204.538V108.737H202.522V103.481ZM202.72 108.737H204.304V113.741H204.52V120.347H202.522V113.741H202.72V108.737ZM201.604 111.995V113.075H205.492V111.995H201.604ZM201.604 109.529V110.591H205.492V109.529H201.604ZM199.966 108.035H207.22V114.569H199.966V108.035ZM226.246 114.137H229.486V115.541H226.246V114.137ZM225.13 105.119H230.656V106.703H225.13V105.119ZM224.77 109.115H235.66V110.789H224.77V109.115ZM226.714 111.581H230.422V118.097H226.714V116.621H228.748V113.075H226.714V111.581ZM225.436 111.581H227.092V119.141H225.436V111.581ZM226.966 103.517H228.82V106.181H226.966V103.517ZM233.77 111.455L235.498 111.833C234.436 115.595 232.456 118.547 229.738 120.401C229.504 120.041 228.892 119.321 228.514 118.997C231.124 117.449 232.888 114.785 233.77 111.455ZM225.49 106.955L226.876 106.631C227.146 107.333 227.344 108.287 227.362 108.917L225.904 109.277C225.904 108.665 225.724 107.693 225.49 106.955ZM232.564 104.957L233.986 104.219C234.724 105.101 235.426 106.289 235.75 107.099L234.256 107.945C233.968 107.117 233.248 105.857 232.564 104.957ZM228.694 106.631L230.332 106.937C230.044 107.765 229.774 108.611 229.558 109.205L228.226 108.917C228.406 108.251 228.622 107.297 228.694 106.631ZM218.974 104.147H225.202V106.037H218.974V104.147ZM220.54 107.999H223.69V109.745H220.54V107.999ZM220.54 111.671H223.69V113.417H220.54V111.671ZM219.694 105.173H221.458V116.477H219.694V105.173ZM222.628 105.155H224.428V120.365H222.628V105.155ZM218.632 116.063C219.91 115.883 221.764 115.541 223.618 115.217L223.762 117.035C222.106 117.395 220.396 117.755 218.992 118.043L218.632 116.063ZM230.926 103.463H232.834C232.762 111.077 233.248 117.827 234.058 117.863C234.274 117.863 234.418 117.017 234.49 115.577C234.796 116.009 235.57 116.585 235.876 116.783C235.426 119.717 234.562 120.365 233.95 120.347C231.43 120.311 231.016 113.471 230.926 103.463ZM238.522 108.917H254.722V110.825H238.522V108.917ZM240.088 105.407H250.384V107.279H240.088V105.407ZM243.256 115.199H251.302V116.819H243.256V115.199ZM243.256 118.025H251.302V119.843H243.256V118.025ZM244.336 103.463H246.46V109.979H244.336V103.463ZM252.256 103.985L254.11 104.939C250.582 109.853 245.092 113.471 239.26 115.613C239.008 115.145 238.36 114.245 237.964 113.813C243.814 111.941 249.106 108.503 252.256 103.985ZM242.05 112.265H252.67V120.311H250.42V114.029H244.21V120.383H242.05V112.265ZM265.828 104.309C265.684 104.975 265.45 106.037 264.946 107.333C264.568 108.215 264.046 109.241 263.542 109.961C264.028 109.745 264.982 109.619 265.594 109.619C267.088 109.619 268.222 110.501 268.222 112.175C268.222 113.147 268.276 115.109 268.294 116.243H266.134C266.206 115.397 266.242 113.867 266.224 112.895C266.224 111.743 265.504 111.365 264.748 111.365C263.758 111.365 262.624 111.959 261.94 112.607C261.4 113.147 260.896 113.795 260.284 114.587L258.358 113.147C260.662 111.023 262.048 109.079 262.804 107.099C263.164 106.127 263.398 105.029 263.452 104.111L265.828 104.309ZM259.042 105.983C259.96 106.109 261.292 106.181 262.21 106.181C264.586 106.181 267.844 106.055 270.454 105.587L270.436 107.675C267.898 108.035 264.28 108.197 262.084 108.197C261.346 108.197 260.032 108.161 259.042 108.071V105.983ZM273.298 111.095C272.74 111.257 271.768 111.617 271.156 111.851C269.986 112.301 268.366 112.949 266.674 113.813C265.036 114.659 264.154 115.433 264.154 116.423C264.154 117.413 265.018 117.683 266.764 117.683C268.294 117.683 270.31 117.485 271.894 117.161L271.822 119.483C270.616 119.645 268.42 119.807 266.71 119.807C263.902 119.807 261.796 119.105 261.796 116.783C261.796 114.281 264.37 112.805 266.53 111.725C268.186 110.861 269.32 110.429 270.4 109.925C271.102 109.619 271.732 109.331 272.416 108.989L273.298 111.095ZM134.464 134.807C134.464 139.253 133.384 141.971 129.028 143.897L127.102 142.079C130.594 140.873 132.106 139.307 132.106 134.879V130.091C132.106 129.371 132.07 128.777 131.998 128.435H134.572C134.536 128.795 134.464 129.371 134.464 130.091V134.807ZM127.948 128.579C127.912 128.921 127.84 129.497 127.84 130.217V136.643C127.84 137.453 127.894 138.191 127.93 138.533H125.41C125.446 138.191 125.5 137.453 125.5 136.643V130.199C125.5 129.695 125.464 129.137 125.392 128.579H127.948ZM122.026 131.819C122.35 131.873 123.088 131.999 123.97 131.999H135.778C136.732 131.999 137.272 131.945 137.776 131.873V134.267C137.38 134.213 136.732 134.213 135.796 134.213H123.97C123.07 134.213 122.44 134.249 122.026 134.267V131.819ZM154.39 129.263C154.39 129.803 154.822 130.235 155.362 130.235C155.902 130.235 156.352 129.803 156.352 129.263C156.352 128.723 155.902 128.273 155.362 128.273C154.822 128.273 154.39 128.723 154.39 129.263ZM153.292 129.263C153.292 128.111 154.21 127.175 155.362 127.175C156.514 127.175 157.45 128.111 157.45 129.263C157.45 130.415 156.514 131.333 155.362 131.333C154.21 131.333 153.292 130.415 153.292 129.263ZM150.808 128.543C150.754 128.795 150.646 129.677 150.646 130.127C150.646 131.189 150.646 132.719 150.646 133.763C150.646 135.221 150.646 140.585 150.646 142.097C150.646 143.141 150.034 143.789 148.756 143.789C147.802 143.789 146.74 143.753 145.84 143.645L145.624 141.413C146.38 141.557 147.172 141.611 147.622 141.611C148.09 141.611 148.252 141.449 148.27 140.981C148.288 140.297 148.288 134.609 148.288 133.763C148.288 133.133 148.288 131.207 148.288 130.109C148.288 129.641 148.198 128.867 148.144 128.543H150.808ZM141.988 131.423C142.528 131.495 143.158 131.549 143.716 131.549C144.814 131.549 153.544 131.549 154.84 131.549C155.344 131.549 156.118 131.495 156.604 131.441V133.799C156.046 133.745 155.344 133.727 154.858 133.727C153.562 133.727 144.904 133.727 143.716 133.727C143.176 133.727 142.492 133.745 141.988 133.799V131.423ZM146.578 136.301C145.75 137.885 144.076 140.243 143.104 141.305L141.142 139.991C142.348 138.839 143.788 136.859 144.526 135.329L146.578 136.301ZM154.3 135.275C155.218 136.427 156.658 138.695 157.378 140.009L155.272 141.179C154.498 139.631 153.22 137.453 152.338 136.337L154.3 135.275ZM161.518 134.411C162.184 134.465 163.48 134.537 164.416 134.537C166.54 134.537 172.48 134.537 174.082 134.537C174.928 134.537 175.72 134.447 176.206 134.411V137.255C175.774 137.237 174.856 137.147 174.1 137.147C172.462 137.147 166.54 137.147 164.416 137.147C163.408 137.147 162.202 137.201 161.518 137.255V134.411ZM184.954 141.035C184.954 139.649 184.954 132.197 184.954 130.685C184.954 130.037 184.9 129.155 184.774 128.507H187.582C187.51 129.155 187.42 129.929 187.42 130.685C187.42 132.665 187.438 139.703 187.438 141.035C187.438 141.539 187.51 142.799 187.6 143.537H184.774C184.9 142.835 184.954 141.737 184.954 141.035ZM186.898 133.169C189.292 133.835 193.18 135.257 194.944 136.121L193.936 138.623C191.884 137.561 188.86 136.409 186.898 135.761V133.169ZM206.824 138.119L206.356 131.963L206.266 129.281H209.236L209.146 131.963L208.678 138.119H206.824ZM207.76 142.925C206.824 142.925 206.158 142.259 206.158 141.323C206.158 140.387 206.842 139.739 207.76 139.739C208.66 139.739 209.344 140.387 209.344 141.323C209.344 142.259 208.66 142.925 207.76 142.925Z" fill="#EC2C2C"/>
</svg>
