<svg width="272" height="188" viewBox="0 0 272 188" fill="none" xmlns="http://www.w3.org/2000/svg">
<path d="M171.76 13.9663C171.553 13.8298 171.28 13.8499 171.096 14.0144C170.955 14.1388 157.049 26.5039 148.739 23.6368C140.931 20.9423 136.974 2.58833 136.549 0.503749C136.547 0.489704 136.543 0.47566 136.539 0.463622C136.521 0.343242 136.462 0.232893 136.376 0.150633C136.312 0.0864305 136.24 0.0483101 136.172 0.0262404C136.149 0.018215 136.125 0.012196 136.103 0.00818334C136.099 0.00818334 136.081 0.00417066 136.051 0.00216432C135.975 -0.00385469 135.919 0.00417066 135.903 0.00818334C135.67 0.0503164 135.501 0.240918 135.465 0.463622C135.461 0.47566 135.459 0.489704 135.457 0.503749C135.032 2.58833 131.077 20.9423 123.267 23.6368C114.957 26.5039 101.049 14.1388 100.908 14.0144C100.724 13.8479 100.451 13.8278 100.244 13.9663C100.037 14.1027 99.9491 14.3615 100.029 14.5963L109.467 42.045C109.543 42.2637 109.75 42.4121 109.981 42.4121H162.021C162.254 42.4121 162.461 42.2637 162.535 42.045L171.971 14.5963C172.051 14.3615 171.963 14.1027 171.756 13.9663H171.76Z" fill="white"/>
<path d="M161.193 45.4038H111.474C110.497 45.4038 109.704 46.1961 109.704 47.1734V48.9751C109.704 49.9524 110.497 50.7447 111.474 50.7447H161.193C162.17 50.7447 162.962 49.9524 162.962 48.9751V47.1734C162.962 46.1961 162.17 45.4038 161.193 45.4038Z" fill="white"/>
<rect x="52" y="62.7446" width="144" height="44" rx="2" fill="white"/>
<path d="M80.752 74.5366L82.648 76.7926C78.928 77.8246 73.744 78.4006 69.352 78.6406C69.256 77.9926 68.896 76.9606 68.608 76.3366C72.904 76.0486 77.776 75.4246 80.752 74.5366ZM68.944 79.7446L71.224 79.1446C71.944 80.5606 72.64 82.4326 72.832 83.6566L70.384 84.3766C70.216 83.1526 69.616 81.2086 68.944 79.7446ZM73.6 79.0006L76 78.5446C76.552 79.9606 77.008 81.7606 77.08 82.9366L74.512 83.4406C74.488 82.3126 74.104 80.4406 73.6 79.0006ZM80.584 78.1366L83.296 79.1206C82.264 81.1606 81.016 83.4166 80.008 84.8566L77.776 83.9446C78.736 82.4326 79.936 79.9606 80.584 78.1366ZM68.92 86.3686H83.104V88.8646H68.92V86.3686ZM74.56 83.8966H77.296V96.7366H74.56V83.8966ZM73.696 87.8086L75.952 88.6006C74.488 91.5766 71.992 94.3606 69.28 95.8726C68.848 95.1766 67.984 94.1686 67.36 93.6406C69.952 92.4646 72.424 90.1606 73.696 87.8086ZM78.136 87.9286C79.288 90.1366 81.544 92.3926 83.8 93.5926C83.176 94.0966 82.312 95.0806 81.904 95.7286C79.552 94.2406 77.272 91.4806 75.952 88.6966L78.136 87.9286ZM60.64 86.4406C62.56 86.0086 65.416 85.2406 68.128 84.4726L68.512 87.0646C66.04 87.8326 63.4 88.6006 61.288 89.2006L60.64 86.4406ZM61.024 78.9286H68.368V81.5686H61.024V78.9286ZM63.568 74.3926H66.208V93.8566C66.208 95.2006 65.968 95.9446 65.224 96.3766C64.504 96.8326 63.472 96.9286 61.912 96.9286C61.84 96.2086 61.504 95.0326 61.168 94.2406C62.032 94.2886 62.872 94.2886 63.16 94.2646C63.448 94.2646 63.568 94.1926 63.568 93.8566V74.3926ZM91.12 75.9766H105.856V78.7126H91.12V75.9766ZM91.12 81.4966H105.904V84.1846H91.12V81.4966ZM91.072 87.1606H106V89.8726H91.072V87.1606ZM89.464 75.9766H92.32V84.6166C92.32 88.4326 91.84 93.8326 88.888 97.0486C88.432 96.4966 87.256 95.5366 86.632 95.1766C89.248 92.2726 89.464 87.9766 89.464 84.5926V75.9766ZM104.848 75.9766H107.704V93.5206C107.704 95.0566 107.368 95.8246 106.408 96.2806C105.4 96.7366 103.96 96.7846 101.776 96.7606C101.656 95.9926 101.224 94.7446 100.84 94.0006C102.208 94.0966 103.792 94.0726 104.224 94.0726C104.68 94.0486 104.848 93.9046 104.848 93.4966V75.9766ZM96.856 77.0566H99.784V96.6166H96.856V77.0566ZM126.184 78.3046C125.848 80.7526 125.368 83.5606 124.528 86.3926C123.088 91.2406 121.024 94.2166 118.408 94.2166C115.72 94.2166 113.512 91.2646 113.512 87.2086C113.512 81.6886 118.336 76.9366 124.552 76.9366C130.48 76.9366 134.248 81.0646 134.248 86.3206C134.248 91.3606 131.152 94.9366 125.104 95.8726L123.28 93.0406C124.216 92.9206 124.888 92.8006 125.536 92.6566C128.584 91.9126 130.984 89.7286 130.984 86.2006C130.984 82.4326 128.632 79.7446 124.48 79.7446C119.392 79.7446 116.608 83.8966 116.608 86.9206C116.608 89.3446 117.568 90.5206 118.48 90.5206C119.512 90.5206 120.424 88.9846 121.432 85.7446C122.128 83.4886 122.656 80.7286 122.896 78.2086L126.184 78.3046ZM157.192 77.1526C157.192 77.9206 157.816 78.5446 158.584 78.5446C159.352 78.5446 159.976 77.9206 159.976 77.1526C159.976 76.3846 159.352 75.7606 158.584 75.7606C157.816 75.7606 157.192 76.3846 157.192 77.1526ZM155.704 77.1526C155.704 75.5686 157 74.2726 158.584 74.2726C160.168 74.2726 161.464 75.5686 161.464 77.1526C161.464 78.7366 160.168 80.0326 158.584 80.0326C157 80.0326 155.704 78.7366 155.704 77.1526ZM158.632 79.0486C158.392 79.5046 158.224 80.2006 158.104 80.7046C157.552 83.0566 156.496 86.8006 154.48 89.4646C152.32 92.3446 149.128 94.7206 144.832 96.0886L142.216 93.2086C146.992 92.1046 149.704 90.0166 151.624 87.5926C153.232 85.6006 154.144 82.8646 154.456 80.8006C152.992 80.8006 145.072 80.8006 143.272 80.8006C142.168 80.8006 141.04 80.8726 140.416 80.9206V77.5126C141.136 77.6086 142.48 77.7286 143.272 77.7286C145.072 77.7286 153.04 77.7286 154.384 77.7286C154.864 77.7286 155.632 77.7046 156.256 77.5366L158.632 79.0486ZM166.864 77.7286C167.824 77.7526 168.736 77.7766 169.384 77.7766C171.136 77.7766 180.88 77.7766 182.608 77.7766C183.208 77.7766 184.096 77.7766 184.984 77.7526C184.936 78.4726 184.936 79.3366 184.936 80.0806C184.936 81.5446 184.936 90.3766 184.936 91.8406C184.936 92.7766 184.96 95.0806 184.984 95.1766H181.648C181.648 95.0806 181.72 93.2086 181.72 91.8886C181.72 90.4966 181.72 80.8486 181.72 80.8486H170.104C170.104 80.8486 170.104 90.4726 170.104 91.8886C170.104 93.0406 170.128 95.0566 170.128 95.1766H166.84C166.84 95.0566 166.888 92.9446 166.888 91.7926C166.888 90.3526 166.888 81.4726 166.888 80.0806C166.888 79.3846 166.888 78.4246 166.864 77.7286ZM182.896 90.8086V93.8566H168.472V90.8086H182.896Z" fill="#EC2C2C"/>
<path d="M209.08 78.1046C208.96 78.6246 208.84 79.2646 208.74 79.7646C208.54 80.6646 208.3 81.9046 208.08 82.9246C207.42 85.7446 205.82 91.4446 203.72 94.8246L201.1 93.7846C203.48 90.5846 204.98 85.3046 205.54 82.7846C205.92 80.9846 206.14 79.2846 206.12 77.7846L209.08 78.1046ZM215.98 80.1046C217.2 81.8446 218.88 85.5646 219.5 87.4646L216.96 88.6446C216.44 86.4246 215.02 82.9046 213.58 81.1246L215.98 80.1046ZM200.98 82.2046C201.7 82.2446 202.38 82.2246 203.12 82.2046C204.72 82.1646 208.52 81.7246 210 81.7246C212.12 81.7246 213.62 82.6646 213.62 85.5646C213.62 87.9246 213.32 91.1646 212.48 92.8846C211.82 94.2846 210.7 94.7246 209.2 94.7246C208.42 94.7246 207.48 94.6046 206.8 94.4446L206.36 91.8046C207.14 92.0246 208.28 92.2246 208.8 92.2246C209.48 92.2246 210 92.0246 210.3 91.3646C210.86 90.2446 211.12 87.8046 211.12 85.8446C211.12 84.2446 210.44 84.0046 209.18 84.0046C208 84.0046 204.54 84.4446 203.44 84.5846C202.86 84.6646 201.82 84.8046 201.22 84.9046L200.98 82.2046ZM215.62 77.3446C216.12 78.0646 216.82 79.3446 217.2 80.0846L215.6 80.7646C215.18 79.9446 214.56 78.7646 214.02 77.9846L215.62 77.3446ZM217.98 76.4246C218.5 77.1846 219.24 78.4646 219.6 79.1646L218 79.8446C217.6 79.0046 216.94 77.8446 216.4 77.0846L217.98 76.4246Z" fill="white"/>
<rect y="114.745" width="248" height="44" rx="2" fill="white"/>
<path d="M20.224 127.449C20.08 127.905 19.984 128.337 19.888 128.721C19.432 130.953 19.024 134.409 19.024 137.385C19.024 141.177 19.72 143.865 20.512 146.289L17.752 147.105C17.032 144.945 16.336 141.393 16.336 137.865C16.336 134.721 16.768 131.193 17.032 128.817C17.08 128.337 17.128 127.785 17.104 127.353L20.224 127.449ZM15.928 130.089C20.488 130.089 24.112 129.873 27.784 128.985L27.808 131.745C24.52 132.345 19.48 132.705 15.856 132.705C14.584 132.705 12.712 132.585 11.584 132.537L11.512 129.777C12.376 129.897 14.464 130.089 15.928 130.089ZM26.296 133.617C26.104 134.049 25.744 135.153 25.576 135.657C24.208 139.977 21.736 143.217 19.456 144.897C17.896 146.049 15.808 147.105 13.72 147.105C11.968 147.105 10.504 146.049 10.504 143.601C10.504 140.217 13.528 136.689 17.344 135.297C18.928 134.721 20.896 134.361 22.696 134.361C27.184 134.361 30.496 136.953 30.496 140.697C30.496 144.105 28.48 147.393 22.6 148.305L20.992 145.761C25.624 145.257 27.52 142.929 27.52 140.553C27.52 138.513 25.768 136.785 22.528 136.785C20.344 136.785 18.616 137.409 17.44 137.937C15.04 139.065 13.336 141.369 13.336 142.977C13.336 143.769 13.648 144.177 14.44 144.177C15.568 144.177 17.176 143.385 18.64 142.017C20.392 140.409 22.024 138.273 22.984 134.961C23.152 134.457 23.32 133.425 23.344 132.897L26.296 133.617ZM36.208 131.025C37.24 131.145 38.536 131.193 39.4 131.193C42.376 131.193 45.616 130.689 47.944 129.945L48.016 132.729C45.952 133.305 42.496 133.929 39.424 133.905C38.464 133.905 37.456 133.881 36.424 133.833L36.208 131.025ZM45.544 127.425C45.232 128.697 44.656 131.049 44.008 133.089C42.904 136.545 40.744 141.009 38.704 143.841L35.8 142.353C37.96 139.713 40.12 135.513 41.056 132.921C41.632 131.193 42.16 128.961 42.232 127.113L45.544 127.425ZM51.184 134.913C51.112 135.921 51.136 136.929 51.16 137.985C51.208 139.401 51.424 142.977 51.424 144.321C51.424 146.553 50.224 148.305 46.792 148.305C43.816 148.305 41.464 146.961 41.464 144.321C41.464 141.993 43.432 140.169 46.768 140.169C50.968 140.169 54.28 142.281 56.272 144.081L54.688 146.673C52.96 145.065 50.224 142.593 46.6 142.593C45.208 142.593 44.296 143.193 44.296 144.033C44.296 144.921 45.064 145.545 46.384 145.545C48.016 145.545 48.544 144.633 48.544 143.289C48.544 141.849 48.28 137.433 48.16 134.913H51.184ZM55.312 136.185C53.92 135.057 51.184 133.497 49.528 132.753L51.088 130.401C52.816 131.145 55.768 132.753 57.016 133.641L55.312 136.185ZM71.512 127.593C71.344 128.265 71.128 129.345 71.008 129.873C70.672 131.505 70.072 134.433 69.424 136.881C68.56 140.241 66.952 145.137 65.632 147.993L62.296 146.865C63.712 144.441 65.536 139.425 66.448 136.065C67.048 133.809 67.6 131.169 67.768 129.753C67.888 128.865 67.912 127.881 67.84 127.305L71.512 127.593ZM65.392 131.193C68.32 131.193 71.704 130.737 74.824 129.993V132.993C71.848 133.689 68.08 134.097 65.368 134.097C64.192 134.097 63.304 134.049 62.464 134.001L62.368 131.001C63.616 131.145 64.408 131.193 65.392 131.193ZM72.928 134.865C74.272 134.721 76 134.625 77.56 134.625C78.928 134.625 80.368 134.697 81.76 134.841L81.712 137.721C80.488 137.577 79.024 137.409 77.584 137.409C75.928 137.409 74.44 137.481 72.928 137.673V134.865ZM74.224 140.889C74.056 141.585 73.912 142.353 73.912 142.881C73.912 143.937 74.608 144.729 77.2 144.729C78.808 144.729 80.464 144.561 82.168 144.249L82.048 147.297C80.704 147.489 79.096 147.633 77.176 147.633C73.12 147.633 70.96 146.265 70.96 143.841C70.96 142.713 71.176 141.561 71.368 140.625L74.224 140.889ZM96.808 129.969C99.76 130.377 104.56 130.257 107.128 129.945V133.041C104.2 133.329 99.832 133.329 96.832 133.041L96.808 129.969ZM98.728 140.217C98.536 141.033 98.44 141.609 98.44 142.233C98.44 143.313 99.376 143.961 101.824 143.961C103.96 143.961 105.736 143.769 107.824 143.313L107.896 146.553C106.336 146.865 104.392 147.033 101.68 147.033C97.552 147.033 95.56 145.545 95.56 143.097C95.56 142.137 95.704 141.201 95.992 139.977L98.728 140.217ZM93.112 128.361C92.944 128.865 92.632 130.089 92.536 130.521C92.2 132.105 91.36 136.905 91.36 139.305C91.36 139.785 91.384 140.385 91.456 140.865C91.816 140.049 92.2 139.233 92.56 138.417L94.048 139.593C93.352 141.609 92.56 144.201 92.32 145.473C92.248 145.833 92.176 146.361 92.176 146.601C92.2 146.865 92.2 147.273 92.224 147.609L89.464 147.777C88.984 146.145 88.528 143.217 88.528 139.953C88.528 136.329 89.248 132.297 89.512 130.425C89.608 129.777 89.728 128.865 89.752 128.097L93.112 128.361ZM118 134.121H130.048V136.641H118V134.121ZM117.712 145.521H130.096V148.041H117.712V145.521ZM116.44 139.041H131.728V148.953H128.776V141.585H119.272V148.953H116.44V139.041ZM123.904 129.225C121.936 132.033 118.24 135.201 114.28 137.313C113.896 136.641 113.104 135.585 112.48 134.985C116.632 132.969 120.496 129.345 122.272 126.393H125.272C127.888 130.089 131.752 133.137 135.616 134.697C134.896 135.417 134.224 136.401 133.72 137.289C130.024 135.345 125.992 132.081 123.904 129.225ZM141.328 136.593C142.048 136.473 143.152 136.185 143.872 135.945C145.528 135.465 149.584 134.073 152.488 134.073C156.304 134.073 158.848 136.329 158.848 139.977C158.848 144.297 155.008 147.273 147.4 147.729L146.128 144.777C151.6 144.633 155.656 143.169 155.656 139.905C155.656 138.129 154.312 136.857 152.2 136.857C149.416 136.857 144.64 138.849 142.576 139.713L141.328 136.593ZM175.192 127.593C175.024 128.265 174.808 129.345 174.688 129.873C174.352 131.505 173.752 134.433 173.104 136.881C172.24 140.241 170.632 145.137 169.312 147.993L165.976 146.865C167.392 144.441 169.216 139.425 170.128 136.065C170.728 133.809 171.28 131.169 171.448 129.753C171.568 128.865 171.592 127.881 171.52 127.305L175.192 127.593ZM169.072 131.193C172 131.193 175.384 130.737 178.504 129.993V132.993C175.528 133.689 171.76 134.097 169.048 134.097C167.872 134.097 166.984 134.049 166.144 134.001L166.048 131.001C167.296 131.145 168.088 131.193 169.072 131.193ZM176.608 134.865C177.952 134.721 179.68 134.625 181.24 134.625C182.608 134.625 184.048 134.697 185.44 134.841L185.392 137.721C184.168 137.577 182.704 137.409 181.264 137.409C179.608 137.409 178.12 137.481 176.608 137.673V134.865ZM177.904 140.889C177.736 141.585 177.592 142.353 177.592 142.881C177.592 143.937 178.288 144.729 180.88 144.729C182.488 144.729 184.144 144.561 185.848 144.249L185.728 147.297C184.384 147.489 182.776 147.633 180.856 147.633C176.8 147.633 174.64 146.265 174.64 143.841C174.64 142.713 174.856 141.561 175.048 140.625L177.904 140.889ZM201.64 129.105C199.672 132.033 195.976 135.393 191.992 137.649C191.608 136.977 190.792 135.921 190.144 135.321C194.32 133.161 198.208 129.345 200.008 126.249H203.008C205.6 130.089 209.536 133.353 213.4 135.033C212.68 135.777 212.008 136.737 211.456 137.601C207.736 135.537 203.704 132.081 201.64 129.105ZM201.784 138.273H209.848V140.841H201.784V138.273ZM191.512 145.665H212.032V148.257H191.512V145.665ZM200.344 133.113H203.416V147.057H200.344V133.113ZM194.128 137.265H196.96V146.985H194.128V137.265ZM217.024 141.057H238.432V143.409H217.024V141.057ZM217.072 130.281H238.336V132.657H217.072V130.281ZM218.056 134.577H237.424V136.833H218.056V134.577ZM219.256 137.889H236.296V139.977H219.256V137.889ZM226.216 135.729H229.072V148.905H226.216V135.729ZM224.128 126.345H226.816V131.409H224.128V126.345ZM228.568 126.345H231.304V131.241H228.568V126.345ZM225.688 142.113L227.944 143.121C225.664 145.617 221.824 147.657 218.128 148.617C217.744 147.921 216.904 146.817 216.28 146.217C219.904 145.521 223.72 143.937 225.688 142.113ZM229.648 142.041C231.592 143.937 235.336 145.425 239.08 146.049C238.432 146.649 237.568 147.849 237.136 148.641C233.344 147.681 229.672 145.641 227.416 142.929L229.648 142.041ZM234.088 126.537L237.112 127.257C236.344 128.577 235.528 129.873 234.904 130.761L232.576 130.041C233.128 129.057 233.752 127.593 234.088 126.537ZM230.92 131.697L233.968 132.393C233.32 133.545 232.696 134.601 232.192 135.369L229.744 134.673C230.176 133.809 230.68 132.585 230.92 131.697ZM218.8 127.305L221.272 126.465C221.968 127.497 222.76 128.937 223.096 129.873L220.48 130.809C220.216 129.873 219.448 128.409 218.8 127.305ZM221.848 132.681L224.632 132.249C225.04 132.921 225.496 133.857 225.688 134.505L222.76 135.009C222.616 134.385 222.208 133.377 221.848 132.681Z" fill="#EC2C2C"/>
<path d="M261.72 129.705C261.56 130.445 261.3 131.625 260.74 133.065C260.32 134.045 259.74 135.185 259.18 135.985C259.72 135.745 260.78 135.605 261.46 135.605C263.12 135.605 264.38 136.585 264.38 138.445C264.38 139.525 264.44 141.705 264.46 142.965H262.06C262.14 142.025 262.18 140.325 262.16 139.245C262.16 137.965 261.36 137.545 260.52 137.545C259.42 137.545 258.16 138.205 257.4 138.925C256.8 139.525 256.24 140.245 255.56 141.125L253.42 139.525C255.98 137.165 257.52 135.005 258.36 132.805C258.76 131.725 259.02 130.505 259.08 129.485L261.72 129.705ZM254.18 131.565C255.2 131.705 256.68 131.785 257.7 131.785C260.34 131.785 263.96 131.645 266.86 131.125L266.84 133.445C264.02 133.845 260 134.025 257.56 134.025C256.74 134.025 255.28 133.985 254.18 133.885V131.565ZM270.02 137.245C269.4 137.425 268.32 137.825 267.64 138.085C266.34 138.585 264.54 139.305 262.66 140.265C260.84 141.205 259.86 142.065 259.86 143.165C259.86 144.265 260.82 144.565 262.76 144.565C264.46 144.565 266.7 144.345 268.46 143.985L268.38 146.565C267.04 146.745 264.6 146.925 262.7 146.925C259.58 146.925 257.24 146.145 257.24 143.565C257.24 140.785 260.1 139.145 262.5 137.945C264.34 136.985 265.6 136.505 266.8 135.945C267.58 135.605 268.28 135.285 269.04 134.905L270.02 137.245Z" fill="white"/>
<path d="M75.9 171.425C77.38 171.585 79.26 171.665 81.36 171.665C83.32 171.665 85.62 171.545 87.16 171.385V174.045C85.76 174.165 83.28 174.285 81.38 174.285C79.28 174.285 77.54 174.185 75.9 174.065V171.425ZM77.6 179.885C77.4 180.605 77.26 181.245 77.26 181.925C77.26 183.205 78.46 184.125 81.36 184.125C84.06 184.125 86.6 183.825 88.38 183.345L88.4 186.145C86.66 186.565 84.26 186.825 81.44 186.825C76.86 186.825 74.56 185.285 74.56 182.545C74.56 181.385 74.8 180.405 74.96 179.665L77.6 179.885ZM87.68 169.345C88.18 170.085 88.88 171.365 89.26 172.105L87.66 172.785C87.24 171.965 86.62 170.765 86.08 170.005L87.68 169.345ZM90.04 168.445C90.56 169.205 91.3 170.465 91.66 171.165L90.06 171.865C89.66 171.025 89 169.865 88.46 169.105L90.04 168.445ZM104.06 184.545H110.96V186.665H104.06V184.545ZM102.94 179.025H112.12V187.445H109.8V181.145H105.14V187.525H102.94V179.025ZM102.24 169.705H111.4V171.905H102.24V169.705ZM110.28 169.705H112.52C112.52 169.705 112.5 170.285 112.48 170.565C112.38 174.745 112.24 176.485 111.74 177.125C111.32 177.645 110.88 177.805 110.24 177.885C109.7 177.965 108.78 177.965 107.8 177.965C107.74 177.265 107.48 176.345 107.1 175.745C107.94 175.825 108.76 175.825 109.14 175.825C109.42 175.825 109.62 175.785 109.78 175.605C110.08 175.265 110.2 173.825 110.28 170.045V169.705ZM105.1 170.605H107.46C107.16 173.985 106.38 176.805 102.84 178.485C102.56 177.925 101.92 177.085 101.42 176.685C104.42 175.385 104.88 173.185 105.1 170.605ZM97.2 168.785L99.28 169.565C98.46 171.085 97.54 172.865 96.76 173.985L95.16 173.285C95.88 172.105 96.74 170.185 97.2 168.785ZM99.5 171.145L101.44 172.025C100 174.325 98.04 177.105 96.52 178.845L95.14 178.065C96.62 176.245 98.46 173.305 99.5 171.145ZM94.12 173.525L95.26 171.885C96.32 172.805 97.56 174.065 98.08 174.985L96.84 176.845C96.36 175.885 95.14 174.485 94.12 173.525ZM98.9 175.925L100.48 175.265C101.26 176.605 102.02 178.365 102.26 179.525L100.56 180.285C100.34 179.125 99.66 177.305 98.9 175.925ZM94.1 177.585C95.94 177.525 98.64 177.425 101.28 177.305L101.26 179.205C98.8 179.385 96.24 179.545 94.3 179.685L94.1 177.585ZM99.34 180.905L101.02 180.365C101.52 181.505 102.04 183.005 102.26 184.005L100.5 184.625C100.3 183.625 99.78 182.085 99.34 180.905ZM94.96 180.525L96.94 180.865C96.74 182.785 96.3 184.785 95.72 186.065C95.3 185.805 94.4 185.385 93.9 185.185C94.48 184.005 94.8 182.225 94.96 180.525ZM97.2 178.645H99.3V187.565H97.2V178.645ZM125.12 171.165C123.56 173.725 120.5 176.485 117.14 178.265C116.84 177.665 116.16 176.765 115.64 176.265C119.2 174.565 122.32 171.365 123.7 168.705H126.3C128.36 172.085 131.54 174.725 134.82 175.985C134.2 176.625 133.66 177.445 133.22 178.185C130.02 176.565 126.74 173.765 125.12 171.165ZM127.34 176.085H129.84V187.545H127.34V176.085ZM120.44 176.185H122.9V178.665C122.9 181.505 122.5 185.085 118.56 187.545C118.14 187.025 117.2 186.225 116.56 185.845C120.08 183.745 120.44 180.925 120.44 178.605V176.185ZM151.04 170.765H153.56V184.525C153.56 185.965 153.22 186.685 152.26 187.065C151.26 187.485 149.8 187.525 147.74 187.525C147.6 186.805 147.12 185.625 146.74 184.965C148.18 185.065 149.92 185.045 150.4 185.045C150.88 185.025 151.04 184.885 151.04 184.465V170.765ZM139.6 174.765H141.94V184.085H139.6V174.765ZM140.6 174.765H148.14V182.545H140.6V180.265H145.76V177.045H140.6V174.765ZM137.76 170.105H155.88V172.525H137.76V170.105ZM162.02 168.665L164.52 169.205C163.8 171.045 162.9 173.005 162.14 174.285L160.06 173.745C160.78 172.385 161.6 170.265 162.02 168.665ZM159 172.765C161.16 172.705 164.4 172.565 167.5 172.425L167.48 174.505C164.54 174.725 161.46 174.905 159.18 175.045L159 172.765ZM160.18 175.985H166.54V177.965H162.4V187.525H160.18V175.985ZM165.4 175.985H167.78V185.125C167.78 186.145 167.58 186.745 166.9 187.105C166.2 187.465 165.3 187.505 164.08 187.505C163.96 186.865 163.62 185.945 163.32 185.365C164.02 185.405 164.82 185.405 165.08 185.385C165.32 185.385 165.4 185.325 165.4 185.065V175.985ZM161.2 179.005H166.74V180.785H161.2V179.005ZM161.2 181.945H166.74V183.725H161.2V181.945ZM169.34 168.845H171.74V174.845C171.74 175.545 171.86 175.645 172.62 175.645C172.94 175.645 174.38 175.645 174.8 175.645C175.46 175.645 175.58 175.345 175.66 173.585C176.16 173.965 177.14 174.325 177.8 174.465C177.54 177.065 176.9 177.785 175.04 177.785C174.54 177.785 172.74 177.785 172.28 177.785C169.92 177.785 169.34 177.105 169.34 174.885V168.845ZM175.34 170.025L176.86 171.765C175.08 172.625 172.76 173.385 170.78 173.925C170.68 173.445 170.36 172.725 170.1 172.265C171.96 171.685 174.02 170.785 175.34 170.025ZM169.34 178.185H171.72V184.485C171.72 185.225 171.86 185.305 172.64 185.305C172.98 185.305 174.48 185.305 174.92 185.305C175.62 185.305 175.74 184.945 175.84 182.905C176.34 183.265 177.3 183.645 177.96 183.785C177.7 186.605 177.06 187.405 175.14 187.405C174.64 187.405 172.78 187.405 172.3 187.405C169.94 187.405 169.34 186.725 169.34 184.505V178.185ZM175.5 179.025L177.06 180.785C175.24 181.765 172.82 182.605 170.76 183.185C170.64 182.725 170.3 181.965 170.06 181.505C172 180.885 174.14 179.905 175.5 179.025ZM164.74 170.865L166.78 170.105C167.76 171.545 168.8 173.445 169.18 174.765L167 175.645C166.66 174.365 165.7 172.365 164.74 170.865ZM188.96 180.605L188.44 173.765L188.34 170.785H191.64L191.54 173.765L191.02 180.605H188.96ZM190 185.945C188.96 185.945 188.22 185.205 188.22 184.165C188.22 183.125 188.98 182.405 190 182.405C191 182.405 191.76 183.125 191.76 184.165C191.76 185.205 191 185.945 190 185.945Z" fill="white"/>
</svg>
